<?xml version="1.0" encoding="utf-8" standalone="no"?>
<!DOCTYPE svg PUBLIC "-//W3C//DTD SVG 1.1//EN"
  "http://www.w3.org/Graphics/SVG/1.1/DTD/svg11.dtd">
<svg xmlns:xlink="http://www.w3.org/1999/xlink" width="1296pt" height="648pt" viewBox="0 0 1296 648" xmlns="http://www.w3.org/2000/svg" version="1.1">
 <metadata>
  <rdf:RDF xmlns:dc="http://purl.org/dc/elements/1.1/" xmlns:cc="http://creativecommons.org/ns#" xmlns:rdf="http://www.w3.org/1999/02/22-rdf-syntax-ns#">
   <cc:Work>
    <dc:type rdf:resource="http://purl.org/dc/dcmitype/StillImage"/>
    <dc:date>2023-03-28T20:19:19.286160</dc:date>
    <dc:format>image/svg+xml</dc:format>
    <dc:creator>
     <cc:Agent>
      <dc:title>Matplotlib v3.7.1, https://matplotlib.org/</dc:title>
     </cc:Agent>
    </dc:creator>
   </cc:Work>
  </rdf:RDF>
 </metadata>
 <defs>
  <style type="text/css">*{stroke-linejoin: round; stroke-linecap: butt}</style>
 </defs>
 <g id="figure_1">
  <g id="patch_1">
   <path d="M 0 648 
L 1296 648 
L 1296 0 
L 0 0 
z
" style="fill: #ffffff"/>
  </g>
  <g id="axes_1">
   <g id="patch_2">
    <path d="M 162 576.72 
L 618.545455 576.72 
L 618.545455 77.76 
L 162 77.76 
z
" style="fill: #ffffff"/>
   </g>
   <g id="matplotlib.axis_1">
    <g id="xtick_1">
     <g id="line2d_1">
      <defs>
       <path id="m829e95d134" d="M 0 0 
L 0 3.5 
" style="stroke: #000000; stroke-width: 0.8"/>
      </defs>
      <g>
       <use xlink:href="#m829e95d134" x="182.752066" y="576.72" style="stroke: #000000; stroke-width: 0.8"/>
      </g>
     </g>
     <g id="text_1">
      <!-- −10.0 -->
      <g transform="translate(158.235816 595.8775) scale(0.16 -0.16)">
       <defs>
        <path id="DejaVuSans-2212" d="M 678 2272 
L 4684 2272 
L 4684 1741 
L 678 1741 
L 678 2272 
z
" transform="scale(0.015625)"/>
        <path id="DejaVuSans-31" d="M 794 531 
L 1825 531 
L 1825 4091 
L 703 3866 
L 703 4441 
L 1819 4666 
L 2450 4666 
L 2450 531 
L 3481 531 
L 3481 0 
L 794 0 
L 794 531 
z
" transform="scale(0.015625)"/>
        <path id="DejaVuSans-30" d="M 2034 4250 
Q 1547 4250 1301 3770 
Q 1056 3291 1056 2328 
Q 1056 1369 1301 889 
Q 1547 409 2034 409 
Q 2525 409 2770 889 
Q 3016 1369 3016 2328 
Q 3016 3291 2770 3770 
Q 2525 4250 2034 4250 
z
M 2034 4750 
Q 2819 4750 3233 4129 
Q 3647 3509 3647 2328 
Q 3647 1150 3233 529 
Q 2819 -91 2034 -91 
Q 1250 -91 836 529 
Q 422 1150 422 2328 
Q 422 3509 836 4129 
Q 1250 4750 2034 4750 
z
" transform="scale(0.015625)"/>
        <path id="DejaVuSans-2e" d="M 684 794 
L 1344 794 
L 1344 0 
L 684 0 
L 684 794 
z
" transform="scale(0.015625)"/>
       </defs>
       <use xlink:href="#DejaVuSans-2212"/>
       <use xlink:href="#DejaVuSans-31" x="83.789062"/>
       <use xlink:href="#DejaVuSans-30" x="147.412109"/>
       <use xlink:href="#DejaVuSans-2e" x="211.035156"/>
       <use xlink:href="#DejaVuSans-30" x="242.822266"/>
      </g>
     </g>
    </g>
    <g id="xtick_2">
     <g id="line2d_2">
      <g>
       <use xlink:href="#m829e95d134" x="234.632231" y="576.72" style="stroke: #000000; stroke-width: 0.8"/>
      </g>
     </g>
     <g id="text_2">
      <!-- −7.5 -->
      <g transform="translate(215.205981 595.8775) scale(0.16 -0.16)">
       <defs>
        <path id="DejaVuSans-37" d="M 525 4666 
L 3525 4666 
L 3525 4397 
L 1831 0 
L 1172 0 
L 2766 4134 
L 525 4134 
L 525 4666 
z
" transform="scale(0.015625)"/>
        <path id="DejaVuSans-35" d="M 691 4666 
L 3169 4666 
L 3169 4134 
L 1269 4134 
L 1269 2991 
Q 1406 3038 1543 3061 
Q 1681 3084 1819 3084 
Q 2600 3084 3056 2656 
Q 3513 2228 3513 1497 
Q 3513 744 3044 326 
Q 2575 -91 1722 -91 
Q 1428 -91 1123 -41 
Q 819 9 494 109 
L 494 744 
Q 775 591 1075 516 
Q 1375 441 1709 441 
Q 2250 441 2565 725 
Q 2881 1009 2881 1497 
Q 2881 1984 2565 2268 
Q 2250 2553 1709 2553 
Q 1456 2553 1204 2497 
Q 953 2441 691 2322 
L 691 4666 
z
" transform="scale(0.015625)"/>
       </defs>
       <use xlink:href="#DejaVuSans-2212"/>
       <use xlink:href="#DejaVuSans-37" x="83.789062"/>
       <use xlink:href="#DejaVuSans-2e" x="147.412109"/>
       <use xlink:href="#DejaVuSans-35" x="179.199219"/>
      </g>
     </g>
    </g>
    <g id="xtick_3">
     <g id="line2d_3">
      <g>
       <use xlink:href="#m829e95d134" x="286.512397" y="576.72" style="stroke: #000000; stroke-width: 0.8"/>
      </g>
     </g>
     <g id="text_3">
      <!-- −5.0 -->
      <g transform="translate(267.086147 595.8775) scale(0.16 -0.16)">
       <use xlink:href="#DejaVuSans-2212"/>
       <use xlink:href="#DejaVuSans-35" x="83.789062"/>
       <use xlink:href="#DejaVuSans-2e" x="147.412109"/>
       <use xlink:href="#DejaVuSans-30" x="179.199219"/>
      </g>
     </g>
    </g>
    <g id="xtick_4">
     <g id="line2d_4">
      <g>
       <use xlink:href="#m829e95d134" x="338.392562" y="576.72" style="stroke: #000000; stroke-width: 0.8"/>
      </g>
     </g>
     <g id="text_4">
      <!-- −2.5 -->
      <g transform="translate(318.966312 595.8775) scale(0.16 -0.16)">
       <defs>
        <path id="DejaVuSans-32" d="M 1228 531 
L 3431 531 
L 3431 0 
L 469 0 
L 469 531 
Q 828 903 1448 1529 
Q 2069 2156 2228 2338 
Q 2531 2678 2651 2914 
Q 2772 3150 2772 3378 
Q 2772 3750 2511 3984 
Q 2250 4219 1831 4219 
Q 1534 4219 1204 4116 
Q 875 4013 500 3803 
L 500 4441 
Q 881 4594 1212 4672 
Q 1544 4750 1819 4750 
Q 2544 4750 2975 4387 
Q 3406 4025 3406 3419 
Q 3406 3131 3298 2873 
Q 3191 2616 2906 2266 
Q 2828 2175 2409 1742 
Q 1991 1309 1228 531 
z
" transform="scale(0.015625)"/>
       </defs>
       <use xlink:href="#DejaVuSans-2212"/>
       <use xlink:href="#DejaVuSans-32" x="83.789062"/>
       <use xlink:href="#DejaVuSans-2e" x="147.412109"/>
       <use xlink:href="#DejaVuSans-35" x="179.199219"/>
      </g>
     </g>
    </g>
    <g id="xtick_5">
     <g id="line2d_5">
      <g>
       <use xlink:href="#m829e95d134" x="390.272727" y="576.72" style="stroke: #000000; stroke-width: 0.8"/>
      </g>
     </g>
     <g id="text_5">
      <!-- 0.0 -->
      <g transform="translate(377.550227 595.8775) scale(0.16 -0.16)">
       <use xlink:href="#DejaVuSans-30"/>
       <use xlink:href="#DejaVuSans-2e" x="63.623047"/>
       <use xlink:href="#DejaVuSans-30" x="95.410156"/>
      </g>
     </g>
    </g>
    <g id="xtick_6">
     <g id="line2d_6">
      <g>
       <use xlink:href="#m829e95d134" x="442.152893" y="576.72" style="stroke: #000000; stroke-width: 0.8"/>
      </g>
     </g>
     <g id="text_6">
      <!-- 2.5 -->
      <g transform="translate(429.430393 595.8775) scale(0.16 -0.16)">
       <use xlink:href="#DejaVuSans-32"/>
       <use xlink:href="#DejaVuSans-2e" x="63.623047"/>
       <use xlink:href="#DejaVuSans-35" x="95.410156"/>
      </g>
     </g>
    </g>
    <g id="xtick_7">
     <g id="line2d_7">
      <g>
       <use xlink:href="#m829e95d134" x="494.033058" y="576.72" style="stroke: #000000; stroke-width: 0.8"/>
      </g>
     </g>
     <g id="text_7">
      <!-- 5.0 -->
      <g transform="translate(481.310558 595.8775) scale(0.16 -0.16)">
       <use xlink:href="#DejaVuSans-35"/>
       <use xlink:href="#DejaVuSans-2e" x="63.623047"/>
       <use xlink:href="#DejaVuSans-30" x="95.410156"/>
      </g>
     </g>
    </g>
    <g id="xtick_8">
     <g id="line2d_8">
      <g>
       <use xlink:href="#m829e95d134" x="545.913223" y="576.72" style="stroke: #000000; stroke-width: 0.8"/>
      </g>
     </g>
     <g id="text_8">
      <!-- 7.5 -->
      <g transform="translate(533.190723 595.8775) scale(0.16 -0.16)">
       <use xlink:href="#DejaVuSans-37"/>
       <use xlink:href="#DejaVuSans-2e" x="63.623047"/>
       <use xlink:href="#DejaVuSans-35" x="95.410156"/>
      </g>
     </g>
    </g>
    <g id="xtick_9">
     <g id="line2d_9">
      <g>
       <use xlink:href="#m829e95d134" x="597.793388" y="576.72" style="stroke: #000000; stroke-width: 0.8"/>
      </g>
     </g>
     <g id="text_9">
      <!-- 10.0 -->
      <g transform="translate(579.980888 595.8775) scale(0.16 -0.16)">
       <use xlink:href="#DejaVuSans-31"/>
       <use xlink:href="#DejaVuSans-30" x="63.623047"/>
       <use xlink:href="#DejaVuSans-2e" x="127.246094"/>
       <use xlink:href="#DejaVuSans-30" x="159.033203"/>
      </g>
     </g>
    </g>
   </g>
   <g id="matplotlib.axis_2">
    <g id="ytick_1">
     <g id="line2d_10">
      <defs>
       <path id="m2082e86a5c" d="M 0 0 
L -3.5 0 
" style="stroke: #000000; stroke-width: 0.8"/>
      </defs>
      <g>
       <use xlink:href="#m2082e86a5c" x="162" y="479.156783" style="stroke: #000000; stroke-width: 0.8"/>
      </g>
     </g>
     <g id="text_10">
      <!-- −0.5 -->
      <g transform="translate(116.1475 485.235533) scale(0.16 -0.16)">
       <use xlink:href="#DejaVuSans-2212"/>
       <use xlink:href="#DejaVuSans-30" x="83.789062"/>
       <use xlink:href="#DejaVuSans-2e" x="147.412109"/>
       <use xlink:href="#DejaVuSans-35" x="179.199219"/>
      </g>
     </g>
    </g>
    <g id="ytick_2">
     <g id="line2d_11">
      <g>
       <use xlink:href="#m2082e86a5c" x="162" y="374.82714" style="stroke: #000000; stroke-width: 0.8"/>
      </g>
     </g>
     <g id="text_11">
      <!-- 0.0 -->
      <g transform="translate(129.555 380.90589) scale(0.16 -0.16)">
       <use xlink:href="#DejaVuSans-30"/>
       <use xlink:href="#DejaVuSans-2e" x="63.623047"/>
       <use xlink:href="#DejaVuSans-30" x="95.410156"/>
      </g>
     </g>
    </g>
    <g id="ytick_3">
     <g id="line2d_12">
      <g>
       <use xlink:href="#m2082e86a5c" x="162" y="270.497496" style="stroke: #000000; stroke-width: 0.8"/>
      </g>
     </g>
     <g id="text_12">
      <!-- 0.5 -->
      <g transform="translate(129.555 276.576246) scale(0.16 -0.16)">
       <use xlink:href="#DejaVuSans-30"/>
       <use xlink:href="#DejaVuSans-2e" x="63.623047"/>
       <use xlink:href="#DejaVuSans-35" x="95.410156"/>
      </g>
     </g>
    </g>
    <g id="ytick_4">
     <g id="line2d_13">
      <g>
       <use xlink:href="#m2082e86a5c" x="162" y="166.167853" style="stroke: #000000; stroke-width: 0.8"/>
      </g>
     </g>
     <g id="text_13">
      <!-- 1.0 -->
      <g transform="translate(129.555 172.246603) scale(0.16 -0.16)">
       <use xlink:href="#DejaVuSans-31"/>
       <use xlink:href="#DejaVuSans-2e" x="63.623047"/>
       <use xlink:href="#DejaVuSans-30" x="95.410156"/>
      </g>
     </g>
    </g>
   </g>
   <g id="line2d_14">
    <path d="M 182.752066 374.14715 
L 185.244807 374.299267 
L 187.737547 374.660857 
L 191.061202 375.395033 
L 196.046683 376.513805 
L 198.123967 376.756463 
L 200.201251 376.762515 
L 201.863078 376.570329 
L 203.940362 376.080695 
L 206.017646 375.348252 
L 209.3413 373.87407 
L 212.664954 372.453199 
L 214.742238 371.829675 
L 216.404065 371.569428 
L 218.065892 371.562773 
L 219.727719 371.825768 
L 221.389547 372.350515 
L 223.051374 373.104584 
L 225.544114 374.539798 
L 230.114139 377.289966 
L 231.775966 378.038955 
L 233.437793 378.532902 
L 234.684164 378.705282 
L 235.930534 378.694736 
L 237.176904 378.49953 
L 238.838731 377.967114 
L 240.500558 377.166302 
L 242.577842 375.897826 
L 247.563324 372.719897 
L 249.225151 371.96938 
L 250.471521 371.593745 
L 251.717891 371.402063 
L 252.964262 371.40448 
L 254.210632 371.600206 
L 255.872459 372.139832 
L 257.534286 372.94396 
L 260.027027 374.454641 
L 263.350681 376.464079 
L 265.012508 377.216962 
L 266.258879 377.594678 
L 267.505249 377.782046 
L 268.751619 377.76389 
L 269.99799 377.537312 
L 271.24436 377.11217 
L 272.906187 376.276741 
L 274.983471 374.924468 
L 279.138039 372.084634 
L 280.799866 371.260441 
L 282.046236 370.867295 
L 283.292607 370.705573 
L 284.538977 370.796327 
L 285.785347 371.146153 
L 287.031718 371.746298 
L 288.278088 372.572639 
L 289.939915 373.957689 
L 292.848113 376.786505 
L 294.925396 378.722098 
L 296.587224 379.97087 
L 297.833594 380.635778 
L 299.079964 381.013433 
L 300.326335 381.070778 
L 301.157248 380.922534 
L 302.403618 380.420433 
L 303.649989 379.598451 
L 304.896359 378.491861 
L 306.558186 376.667599 
L 309.881841 372.487927 
L 311.959124 370.11009 
L 313.205495 368.975936 
L 314.451865 368.151766 
L 315.282779 367.803115 
L 316.113692 367.629587 
L 316.944606 367.638741 
L 317.775519 367.833466 
L 318.606433 368.211778 
L 319.852803 369.106925 
L 321.099174 370.354362 
L 322.761001 372.446494 
L 328.161939 379.893626 
L 329.408309 381.081813 
L 330.239223 381.646376 
L 331.070136 382.001304 
L 331.90105 382.128436 
L 332.731963 382.015252 
L 333.562877 381.655422 
L 334.39379 381.04924 
L 335.224704 380.203894 
L 336.471074 378.520392 
L 337.717445 376.409266 
L 339.379272 373.123139 
L 343.118383 365.518267 
L 344.364753 363.540763 
L 345.195667 362.530748 
L 346.02658 361.823312 
L 346.857494 361.460955 
L 347.688407 361.47989 
L 348.519321 361.908805 
L 349.350235 362.767735 
L 350.181148 364.067086 
L 351.012062 365.806822 
L 351.842975 367.975852 
L 353.089346 371.981839 
L 354.335716 376.775305 
L 355.997543 384.068417 
L 360.152111 402.863966 
L 361.398481 407.321879 
L 362.229395 409.663675 
L 363.060308 411.380775 
L 363.891222 412.37498 
L 364.306679 412.572132 
L 364.722135 412.554961 
L 365.137592 412.313457 
L 365.553049 411.838285 
L 365.968506 411.120847 
L 366.799419 408.928767 
L 367.630333 405.685095 
L 368.461246 401.352618 
L 369.29216 395.910292 
L 370.53853 385.662222 
L 371.784901 372.975178 
L 373.031271 358.004428 
L 374.693098 334.929571 
L 376.770382 302.276554 
L 383.002234 200.817978 
L 384.664061 179.076204 
L 385.910431 165.711573 
L 386.741345 158.431265 
L 387.572258 152.570763 
L 388.403172 148.208942 
L 389.234085 145.404723 
L 389.649542 144.599421 
L 390.064999 144.196086 
L 390.480456 144.196086 
L 390.895912 144.599421 
L 391.311369 145.404723 
L 391.726826 146.609258 
L 392.55774 150.198354 
L 393.388653 155.318155 
L 394.219567 161.899618 
L 395.465937 174.314192 
L 396.712307 189.442839 
L 398.374134 213.053559 
L 400.451418 246.358167 
L 405.4369 328.68696 
L 407.098727 352.546741 
L 408.760554 372.975178 
L 410.006924 385.662222 
L 411.253295 395.910292 
L 412.084208 401.352618 
L 412.915122 405.685095 
L 413.746035 408.928767 
L 414.576949 411.120847 
L 414.992406 411.838285 
L 415.407862 412.313457 
L 415.823319 412.554961 
L 416.238776 412.572132 
L 416.654233 412.37498 
L 417.06969 411.974133 
L 417.900603 410.606587 
L 418.731517 408.564515 
L 419.56243 405.948775 
L 420.808801 401.178856 
L 422.470628 393.795573 
L 426.209739 376.775305 
L 427.456109 371.981839 
L 428.702479 367.975852 
L 429.94885 364.882334 
L 430.779763 363.362108 
L 431.610677 362.283632 
L 432.44159 361.641632 
L 433.272504 361.420777 
L 434.103417 361.596573 
L 434.934331 362.136419 
L 435.765245 363.0008 
L 436.596158 364.14456 
L 437.842528 366.275074 
L 439.504356 369.611798 
L 442.82801 376.409266 
L 444.07438 378.520392 
L 445.320751 380.203894 
L 446.151664 381.04924 
L 446.982578 381.655422 
L 447.813491 382.015252 
L 448.644405 382.128436 
L 449.475318 382.001304 
L 450.306232 381.646376 
L 451.137145 381.081813 
L 452.383516 379.893626 
L 453.629886 378.381482 
L 455.70717 375.441733 
L 458.615367 371.349395 
L 459.861738 369.903104 
L 461.108108 368.766728 
L 462.354478 367.999992 
L 463.185392 367.712915 
L 464.016306 367.611035 
L 464.847219 367.693882 
L 465.678133 367.956198 
L 466.924503 368.663621 
L 468.170873 369.701774 
L 469.8327 371.482044 
L 472.325441 374.599837 
L 474.818182 377.621541 
L 476.480009 379.258939 
L 477.726379 380.180625 
L 478.97275 380.792107 
L 480.21912 381.070778 
L 481.46549 381.013433 
L 482.711861 380.635778 
L 483.958231 379.97087 
L 485.204601 379.066651 
L 486.866428 377.592968 
L 491.85191 372.892067 
L 493.513737 371.746298 
L 494.760107 371.146153 
L 496.006478 370.796327 
L 497.252848 370.705573 
L 498.499218 370.867295 
L 499.745589 371.260441 
L 501.407416 372.084634 
L 503.4847 373.441213 
L 507.639267 376.276741 
L 509.301094 377.11217 
L 510.547465 377.537312 
L 511.793835 377.76389 
L 513.040205 377.782046 
L 514.286576 377.594678 
L 515.532946 377.216962 
L 517.194773 376.464079 
L 519.272057 375.249104 
L 523.426625 372.722362 
L 525.088452 371.977378 
L 526.750279 371.513992 
L 527.99665 371.381927 
L 529.24302 371.444671 
L 530.48939 371.699323 
L 532.151217 372.312337 
L 533.813044 373.182224 
L 536.305785 374.781923 
L 539.629439 376.931969 
L 541.291266 377.789714 
L 542.953094 378.394522 
L 544.199464 378.649992 
L 545.445834 378.722375 
L 546.692205 378.610188 
L 548.354032 378.188698 
L 550.015859 377.497551 
L 552.093143 376.356797 
L 558.324994 372.701836 
L 559.986822 372.056884 
L 561.648649 371.660478 
L 563.310476 371.532859 
L 564.972303 371.66973 
L 566.63413 372.043969 
L 568.711414 372.773778 
L 572.035068 374.258366 
L 575.358722 375.666371 
L 577.436006 376.308593 
L 579.51329 376.688994 
L 581.590574 376.790164 
L 583.667858 376.635502 
L 586.160599 376.193424 
L 594.885191 374.345301 
L 597.377932 374.158045 
L 597.793388 374.14715 
L 597.793388 374.14715 
" clip-path="url(#pe282dc3dc8)" style="fill: none; stroke: #ff0000; stroke-width: 1.5; stroke-linecap: square"/>
   </g>
   <g id="line2d_15">
    <path d="M 182.752066 373.528047 
L 184.413893 373.527692 
L 186.07572 373.805508 
L 187.737547 374.363638 
L 190.645745 375.703345 
L 192.723029 376.554476 
L 194.384856 376.991432 
L 196.046683 377.190253 
L 198.539424 377.210302 
L 201.863078 377.260179 
L 205.602189 377.41085 
L 207.264016 377.195019 
L 208.510386 376.812401 
L 209.756757 376.225994 
L 211.418584 375.179541 
L 215.573152 372.36356 
L 216.819522 371.804796 
L 218.065892 371.462374 
L 219.312263 371.324355 
L 220.97409 371.373687 
L 225.544114 371.696174 
L 229.698682 371.748528 
L 230.945052 371.995111 
L 232.191423 372.443897 
L 233.437793 373.098718 
L 235.515077 374.520759 
L 238.007818 376.255707 
L 239.254188 376.905789 
L 240.500558 377.325008 
L 241.746929 377.505137 
L 243.408756 377.449561 
L 247.147867 377.098698 
L 248.809694 377.257446 
L 250.886978 377.766786 
L 253.379719 378.382385 
L 254.626089 378.47912 
L 255.872459 378.355668 
L 257.11883 378.010267 
L 258.780657 377.294657 
L 261.688854 375.95941 
L 263.350681 375.485218 
L 265.012508 375.273872 
L 267.920706 375.007798 
L 269.167076 374.66024 
L 270.413447 374.067171 
L 271.659817 373.236794 
L 275.398928 370.442219 
L 276.229841 370.074458 
L 277.060755 369.893461 
L 277.891669 369.917947 
L 278.722582 370.145613 
L 279.968952 370.807428 
L 283.292607 372.971435 
L 284.12352 373.18492 
L 284.954434 373.135645 
L 285.785347 372.793907 
L 286.616261 372.161321 
L 287.447174 371.273672 
L 289.109002 369.040212 
L 290.355372 367.404858 
L 291.186285 366.577826 
L 292.017199 366.109679 
L 292.432656 366.044302 
L 292.848113 366.105926 
L 293.263569 366.302566 
L 294.094483 367.119462 
L 294.925396 368.502488 
L 295.75631 370.409753 
L 297.00268 374.043455 
L 300.326335 384.455693 
L 301.157248 386.248645 
L 301.988162 387.421757 
L 302.403618 387.750772 
L 302.819075 387.901894 
L 303.234532 387.87527 
L 303.649989 387.674956 
L 304.065446 387.308863 
L 304.896359 386.129281 
L 305.727273 384.469054 
L 309.050927 376.822146 
L 309.881841 375.637615 
L 310.297297 375.259835 
L 310.712754 375.038041 
L 311.128211 374.97682 
L 311.543668 375.076426 
L 311.959124 375.332741 
L 312.790038 376.277669 
L 313.620952 377.696504 
L 316.944606 384.281703 
L 317.775519 385.09801 
L 318.190976 385.26135 
L 318.606433 385.24527 
L 319.02189 385.043283 
L 319.437346 384.65376 
L 320.26826 383.330512 
L 321.099174 381.361217 
L 322.345544 377.557895 
L 324.422828 370.922081 
L 325.253741 368.910653 
L 326.084655 367.594317 
L 326.500112 367.242038 
L 326.915568 367.107525 
L 327.331025 367.193957 
L 327.746482 367.498439 
L 328.161939 368.011931 
L 328.992852 369.599653 
L 329.823766 371.768763 
L 332.316507 378.874652 
L 333.14742 380.339428 
L 333.562877 380.728081 
L 333.978334 380.847722 
L 334.39379 380.675537 
L 334.809247 380.195286 
L 335.224704 379.397899 
L 336.055618 376.853638 
L 336.886531 373.125009 
L 338.132901 365.788445 
L 341.041099 347.031346 
L 341.872013 343.173415 
L 342.702926 340.653505 
L 343.118383 339.964623 
L 343.53384 339.676204 
L 343.949296 339.791267 
L 344.364753 340.303047 
L 344.78021 341.195006 
L 345.611124 344.006233 
L 346.442037 347.913311 
L 349.765691 365.227844 
L 350.596605 367.602234 
L 351.012062 368.256204 
L 351.427518 368.534108 
L 351.842975 368.436294 
L 352.258432 367.976543 
L 352.673889 367.182349 
L 353.504802 364.768577 
L 355.582086 357.264916 
L 355.997543 356.254139 
L 356.413 355.651943 
L 356.828457 355.564967 
L 357.243913 356.095805 
L 357.65937 357.340205 
L 358.074827 359.384299 
L 358.490284 362.301919 
L 359.321197 370.976574 
L 360.152111 383.618369 
L 360.983024 400.149928 
L 362.229395 431.16626 
L 365.968506 532.304578 
L 366.799419 546.181536 
L 367.214876 550.697899 
L 367.630333 553.366614 
L 368.04579 554.04 
L 368.461246 552.596244 
L 368.876703 548.942536 
L 369.29216 543.017757 
L 369.707617 534.794648 
L 370.53853 511.522774 
L 371.369444 479.631819 
L 372.615814 418.155174 
L 374.277641 320.413249 
L 376.354925 200.116059 
L 377.185839 160.857325 
L 378.016752 130.10772 
L 378.847666 109.604235 
L 379.263123 103.584516 
L 379.678579 100.515054 
L 380.094036 100.44 
L 380.509493 103.360434 
L 380.92495 109.234347 
L 381.340407 117.977354 
L 382.17132 143.530597 
L 383.002234 178.56944 
L 384.248604 244.498133 
L 387.987715 459.781719 
L 388.818629 495.799254 
L 389.649542 523.696292 
L 390.480456 542.661265 
L 390.895912 548.700602 
L 391.311369 552.466685 
L 391.726826 554.018988 
L 392.142283 553.448796 
L 392.55774 550.876541 
L 392.973196 546.448693 
L 393.80411 532.721005 
L 394.635023 513.81845 
L 395.881394 479.539848 
L 397.958678 420.664275 
L 399.205048 391.83179 
L 400.035962 377.11547 
L 400.866875 366.369878 
L 401.697789 359.508879 
L 402.113245 357.422749 
L 402.528702 356.140318 
L 402.944159 355.576008 
L 403.359616 355.634483 
L 403.775073 356.213429 
L 404.190529 357.20634 
L 405.021443 360.003558 
L 406.68327 366.03373 
L 407.514184 367.944489 
L 407.92964 368.42173 
L 408.345097 368.538081 
L 408.760554 368.279081 
L 409.176011 367.643721 
L 409.591468 366.643842 
L 410.422381 363.656516 
L 411.253295 359.628593 
L 414.161492 344.092122 
L 414.992406 341.249156 
L 415.407862 340.338794 
L 415.823319 339.807532 
L 416.238776 339.672391 
L 416.654233 339.940627 
L 417.06969 340.609706 
L 417.485146 341.667548 
L 418.31606 344.856483 
L 419.146973 349.242973 
L 420.393344 357.24813 
L 422.470628 370.757638 
L 423.301541 375.033578 
L 424.132455 378.217815 
L 424.963368 380.162992 
L 425.378825 380.658946 
L 425.794282 380.846207 
L 426.209739 380.740667 
L 426.625195 380.364829 
L 427.040652 379.747072 
L 427.871566 377.923396 
L 429.117936 374.317345 
L 430.364306 370.681208 
L 431.19522 368.759425 
L 432.026134 367.519251 
L 432.44159 367.204052 
L 432.857047 367.106599 
L 433.272504 367.23009 
L 433.687961 367.571647 
L 434.103417 368.12254 
L 434.934331 369.790504 
L 435.765245 372.064371 
L 439.088899 382.368731 
L 439.919812 384.046665 
L 440.750726 385.028253 
L 441.166183 385.23962 
L 441.581639 385.26488 
L 441.997096 385.110285 
L 442.412553 384.786708 
L 443.243467 383.696964 
L 444.07438 382.158953 
L 446.567121 376.973111 
L 447.398034 375.761254 
L 448.228948 375.085573 
L 448.644405 374.977997 
L 449.059862 375.031147 
L 449.475318 375.244985 
L 450.306232 376.13305 
L 451.137145 377.558531 
L 452.383516 380.38511 
L 454.4608 385.307294 
L 455.291713 386.758806 
L 456.122627 387.660507 
L 456.538084 387.869329 
L 456.95354 387.904766 
L 457.368997 387.762568 
L 457.784454 387.442391 
L 458.615367 386.285945 
L 459.446281 384.507167 
L 460.692651 380.95187 
L 464.016306 370.463466 
L 464.847219 368.54406 
L 465.678133 367.14721 
L 466.509046 366.31605 
L 466.924503 366.112496 
L 467.33996 366.04429 
L 467.755417 366.103546 
L 468.58633 366.561256 
L 469.417244 367.380794 
L 470.663614 369.011106 
L 472.325441 371.248746 
L 473.156355 372.142017 
L 473.987268 372.781559 
L 474.818182 373.130727 
L 475.649095 373.187073 
L 476.480009 372.979575 
L 477.310922 372.562975 
L 478.97275 371.402171 
L 480.634577 370.338962 
L 481.46549 370.013188 
L 482.296404 369.880319 
L 483.127317 369.954504 
L 483.958231 370.227716 
L 485.204601 370.946325 
L 487.281885 372.573101 
L 488.943712 373.800811 
L 490.190083 374.481763 
L 491.436453 374.911578 
L 493.09828 375.167497 
L 496.421934 375.481117 
L 498.083761 375.951728 
L 500.161045 376.876637 
L 502.653786 378.002844 
L 503.900156 378.351661 
L 505.146527 378.478944 
L 506.392897 378.385584 
L 508.054724 378.010067 
L 510.962922 377.261102 
L 512.624749 377.099012 
L 514.286576 377.187737 
L 517.61023 377.517902 
L 518.8566 377.414146 
L 520.102971 377.080268 
L 521.349341 376.506916 
L 523.011168 375.445218 
L 526.750279 372.870644 
L 527.99665 372.278795 
L 529.24302 371.896502 
L 530.904847 371.677687 
L 533.397588 371.6857 
L 535.890328 371.645859 
L 540.87581 371.348214 
L 542.12218 371.547338 
L 543.36855 371.958873 
L 544.614921 372.582112 
L 546.276748 373.667045 
L 549.600402 375.976528 
L 551.262229 376.804274 
L 552.5086 377.190305 
L 553.75497 377.382454 
L 555.416797 377.411664 
L 562.064105 377.22155 
L 564.141389 377.161949 
L 565.803216 376.910267 
L 567.465044 376.415228 
L 569.542327 375.517774 
L 572.450525 374.209202 
L 574.112352 373.712592 
L 575.774179 373.5047 
L 577.436006 373.56056 
L 583.667858 374.157958 
L 586.991512 373.950413 
L 589.068796 373.913386 
L 591.14608 374.125816 
L 594.054277 374.742889 
L 596.547018 375.181983 
L 597.793388 375.252473 
L 597.793388 375.252473 
" clip-path="url(#pe282dc3dc8)" style="fill: none; stroke: #0000ff; stroke-width: 1.5; stroke-linecap: square"/>
   </g>
   <g id="patch_3">
    <path d="M 162 576.72 
L 162 77.76 
" style="fill: none; stroke: #000000; stroke-width: 0.8; stroke-linejoin: miter; stroke-linecap: square"/>
   </g>
   <g id="patch_4">
    <path d="M 618.545455 576.72 
L 618.545455 77.76 
" style="fill: none; stroke: #000000; stroke-width: 0.8; stroke-linejoin: miter; stroke-linecap: square"/>
   </g>
   <g id="patch_5">
    <path d="M 162 576.72 
L 618.545455 576.72 
" style="fill: none; stroke: #000000; stroke-width: 0.8; stroke-linejoin: miter; stroke-linecap: square"/>
   </g>
   <g id="patch_6">
    <path d="M 162 77.76 
L 618.545455 77.76 
" style="fill: none; stroke: #000000; stroke-width: 0.8; stroke-linejoin: miter; stroke-linecap: square"/>
   </g>
   <g id="legend_1">
    <g id="patch_7">
     <path d="M 425.132955 137.53 
L 607.345455 137.53 
Q 610.545455 137.53 610.545455 134.33 
L 610.545455 88.96 
Q 610.545455 85.76 607.345455 85.76 
L 425.132955 85.76 
Q 421.932955 85.76 421.932955 88.96 
L 421.932955 134.33 
Q 421.932955 137.53 425.132955 137.53 
z
" style="fill: #ffffff; opacity: 0.8; stroke: #cccccc; stroke-linejoin: miter"/>
    </g>
    <g id="line2d_16">
     <path d="M 428.332955 98.7175 
L 444.332955 98.7175 
L 460.332955 98.7175 
" style="fill: none; stroke: #ff0000; stroke-width: 1.5; stroke-linecap: square"/>
    </g>
    <g id="text_14">
     <!-- wavelet -->
     <g transform="translate(473.132955 104.3175) scale(0.16 -0.16)">
      <defs>
       <path id="DejaVuSans-77" d="M 269 3500 
L 844 3500 
L 1563 769 
L 2278 3500 
L 2956 3500 
L 3675 769 
L 4391 3500 
L 4966 3500 
L 4050 0 
L 3372 0 
L 2619 2869 
L 1863 0 
L 1184 0 
L 269 3500 
z
" transform="scale(0.015625)"/>
       <path id="DejaVuSans-61" d="M 2194 1759 
Q 1497 1759 1228 1600 
Q 959 1441 959 1056 
Q 959 750 1161 570 
Q 1363 391 1709 391 
Q 2188 391 2477 730 
Q 2766 1069 2766 1631 
L 2766 1759 
L 2194 1759 
z
M 3341 1997 
L 3341 0 
L 2766 0 
L 2766 531 
Q 2569 213 2275 61 
Q 1981 -91 1556 -91 
Q 1019 -91 701 211 
Q 384 513 384 1019 
Q 384 1609 779 1909 
Q 1175 2209 1959 2209 
L 2766 2209 
L 2766 2266 
Q 2766 2663 2505 2880 
Q 2244 3097 1772 3097 
Q 1472 3097 1187 3025 
Q 903 2953 641 2809 
L 641 3341 
Q 956 3463 1253 3523 
Q 1550 3584 1831 3584 
Q 2591 3584 2966 3190 
Q 3341 2797 3341 1997 
z
" transform="scale(0.015625)"/>
       <path id="DejaVuSans-76" d="M 191 3500 
L 800 3500 
L 1894 563 
L 2988 3500 
L 3597 3500 
L 2284 0 
L 1503 0 
L 191 3500 
z
" transform="scale(0.015625)"/>
       <path id="DejaVuSans-65" d="M 3597 1894 
L 3597 1613 
L 953 1613 
Q 991 1019 1311 708 
Q 1631 397 2203 397 
Q 2534 397 2845 478 
Q 3156 559 3463 722 
L 3463 178 
Q 3153 47 2828 -22 
Q 2503 -91 2169 -91 
Q 1331 -91 842 396 
Q 353 884 353 1716 
Q 353 2575 817 3079 
Q 1281 3584 2069 3584 
Q 2775 3584 3186 3129 
Q 3597 2675 3597 1894 
z
M 3022 2063 
Q 3016 2534 2758 2815 
Q 2500 3097 2075 3097 
Q 1594 3097 1305 2825 
Q 1016 2553 972 2059 
L 3022 2063 
z
" transform="scale(0.015625)"/>
       <path id="DejaVuSans-6c" d="M 603 4863 
L 1178 4863 
L 1178 0 
L 603 0 
L 603 4863 
z
" transform="scale(0.015625)"/>
       <path id="DejaVuSans-74" d="M 1172 4494 
L 1172 3500 
L 2356 3500 
L 2356 3053 
L 1172 3053 
L 1172 1153 
Q 1172 725 1289 603 
Q 1406 481 1766 481 
L 2356 481 
L 2356 0 
L 1766 0 
Q 1100 0 847 248 
Q 594 497 594 1153 
L 594 3053 
L 172 3053 
L 172 3500 
L 594 3500 
L 594 4494 
L 1172 4494 
z
" transform="scale(0.015625)"/>
      </defs>
      <use xlink:href="#DejaVuSans-77"/>
      <use xlink:href="#DejaVuSans-61" x="81.787109"/>
      <use xlink:href="#DejaVuSans-76" x="143.066406"/>
      <use xlink:href="#DejaVuSans-65" x="202.246094"/>
      <use xlink:href="#DejaVuSans-6c" x="263.769531"/>
      <use xlink:href="#DejaVuSans-65" x="291.552734"/>
      <use xlink:href="#DejaVuSans-74" x="353.076172"/>
     </g>
    </g>
    <g id="line2d_17">
     <path d="M 428.332955 122.2025 
L 444.332955 122.2025 
L 460.332955 122.2025 
" style="fill: none; stroke: #0000ff; stroke-width: 1.5; stroke-linecap: square"/>
    </g>
    <g id="text_15">
     <!-- scalling function -->
     <g transform="translate(473.132955 127.8025) scale(0.16 -0.16)">
      <defs>
       <path id="DejaVuSans-73" d="M 2834 3397 
L 2834 2853 
Q 2591 2978 2328 3040 
Q 2066 3103 1784 3103 
Q 1356 3103 1142 2972 
Q 928 2841 928 2578 
Q 928 2378 1081 2264 
Q 1234 2150 1697 2047 
L 1894 2003 
Q 2506 1872 2764 1633 
Q 3022 1394 3022 966 
Q 3022 478 2636 193 
Q 2250 -91 1575 -91 
Q 1294 -91 989 -36 
Q 684 19 347 128 
L 347 722 
Q 666 556 975 473 
Q 1284 391 1588 391 
Q 1994 391 2212 530 
Q 2431 669 2431 922 
Q 2431 1156 2273 1281 
Q 2116 1406 1581 1522 
L 1381 1569 
Q 847 1681 609 1914 
Q 372 2147 372 2553 
Q 372 3047 722 3315 
Q 1072 3584 1716 3584 
Q 2034 3584 2315 3537 
Q 2597 3491 2834 3397 
z
" transform="scale(0.015625)"/>
       <path id="DejaVuSans-63" d="M 3122 3366 
L 3122 2828 
Q 2878 2963 2633 3030 
Q 2388 3097 2138 3097 
Q 1578 3097 1268 2742 
Q 959 2388 959 1747 
Q 959 1106 1268 751 
Q 1578 397 2138 397 
Q 2388 397 2633 464 
Q 2878 531 3122 666 
L 3122 134 
Q 2881 22 2623 -34 
Q 2366 -91 2075 -91 
Q 1284 -91 818 406 
Q 353 903 353 1747 
Q 353 2603 823 3093 
Q 1294 3584 2113 3584 
Q 2378 3584 2631 3529 
Q 2884 3475 3122 3366 
z
" transform="scale(0.015625)"/>
       <path id="DejaVuSans-69" d="M 603 3500 
L 1178 3500 
L 1178 0 
L 603 0 
L 603 3500 
z
M 603 4863 
L 1178 4863 
L 1178 4134 
L 603 4134 
L 603 4863 
z
" transform="scale(0.015625)"/>
       <path id="DejaVuSans-6e" d="M 3513 2113 
L 3513 0 
L 2938 0 
L 2938 2094 
Q 2938 2591 2744 2837 
Q 2550 3084 2163 3084 
Q 1697 3084 1428 2787 
Q 1159 2491 1159 1978 
L 1159 0 
L 581 0 
L 581 3500 
L 1159 3500 
L 1159 2956 
Q 1366 3272 1645 3428 
Q 1925 3584 2291 3584 
Q 2894 3584 3203 3211 
Q 3513 2838 3513 2113 
z
" transform="scale(0.015625)"/>
       <path id="DejaVuSans-67" d="M 2906 1791 
Q 2906 2416 2648 2759 
Q 2391 3103 1925 3103 
Q 1463 3103 1205 2759 
Q 947 2416 947 1791 
Q 947 1169 1205 825 
Q 1463 481 1925 481 
Q 2391 481 2648 825 
Q 2906 1169 2906 1791 
z
M 3481 434 
Q 3481 -459 3084 -895 
Q 2688 -1331 1869 -1331 
Q 1566 -1331 1297 -1286 
Q 1028 -1241 775 -1147 
L 775 -588 
Q 1028 -725 1275 -790 
Q 1522 -856 1778 -856 
Q 2344 -856 2625 -561 
Q 2906 -266 2906 331 
L 2906 616 
Q 2728 306 2450 153 
Q 2172 0 1784 0 
Q 1141 0 747 490 
Q 353 981 353 1791 
Q 353 2603 747 3093 
Q 1141 3584 1784 3584 
Q 2172 3584 2450 3431 
Q 2728 3278 2906 2969 
L 2906 3500 
L 3481 3500 
L 3481 434 
z
" transform="scale(0.015625)"/>
       <path id="DejaVuSans-20" transform="scale(0.015625)"/>
       <path id="DejaVuSans-66" d="M 2375 4863 
L 2375 4384 
L 1825 4384 
Q 1516 4384 1395 4259 
Q 1275 4134 1275 3809 
L 1275 3500 
L 2222 3500 
L 2222 3053 
L 1275 3053 
L 1275 0 
L 697 0 
L 697 3053 
L 147 3053 
L 147 3500 
L 697 3500 
L 697 3744 
Q 697 4328 969 4595 
Q 1241 4863 1831 4863 
L 2375 4863 
z
" transform="scale(0.015625)"/>
       <path id="DejaVuSans-75" d="M 544 1381 
L 544 3500 
L 1119 3500 
L 1119 1403 
Q 1119 906 1312 657 
Q 1506 409 1894 409 
Q 2359 409 2629 706 
Q 2900 1003 2900 1516 
L 2900 3500 
L 3475 3500 
L 3475 0 
L 2900 0 
L 2900 538 
Q 2691 219 2414 64 
Q 2138 -91 1772 -91 
Q 1169 -91 856 284 
Q 544 659 544 1381 
z
M 1991 3584 
L 1991 3584 
z
" transform="scale(0.015625)"/>
       <path id="DejaVuSans-6f" d="M 1959 3097 
Q 1497 3097 1228 2736 
Q 959 2375 959 1747 
Q 959 1119 1226 758 
Q 1494 397 1959 397 
Q 2419 397 2687 759 
Q 2956 1122 2956 1747 
Q 2956 2369 2687 2733 
Q 2419 3097 1959 3097 
z
M 1959 3584 
Q 2709 3584 3137 3096 
Q 3566 2609 3566 1747 
Q 3566 888 3137 398 
Q 2709 -91 1959 -91 
Q 1206 -91 779 398 
Q 353 888 353 1747 
Q 353 2609 779 3096 
Q 1206 3584 1959 3584 
z
" transform="scale(0.015625)"/>
      </defs>
      <use xlink:href="#DejaVuSans-73"/>
      <use xlink:href="#DejaVuSans-63" x="52.099609"/>
      <use xlink:href="#DejaVuSans-61" x="107.080078"/>
      <use xlink:href="#DejaVuSans-6c" x="168.359375"/>
      <use xlink:href="#DejaVuSans-6c" x="196.142578"/>
      <use xlink:href="#DejaVuSans-69" x="223.925781"/>
      <use xlink:href="#DejaVuSans-6e" x="251.708984"/>
      <use xlink:href="#DejaVuSans-67" x="315.087891"/>
      <use xlink:href="#DejaVuSans-20" x="378.564453"/>
      <use xlink:href="#DejaVuSans-66" x="410.351562"/>
      <use xlink:href="#DejaVuSans-75" x="445.556641"/>
      <use xlink:href="#DejaVuSans-6e" x="508.935547"/>
      <use xlink:href="#DejaVuSans-63" x="572.314453"/>
      <use xlink:href="#DejaVuSans-74" x="627.294922"/>
      <use xlink:href="#DejaVuSans-69" x="666.503906"/>
      <use xlink:href="#DejaVuSans-6f" x="694.287109"/>
      <use xlink:href="#DejaVuSans-6e" x="755.46875"/>
     </g>
    </g>
   </g>
  </g>
  <g id="axes_2">
   <g id="patch_8">
    <path d="M 709.854545 576.72 
L 1166.4 576.72 
L 1166.4 77.76 
L 709.854545 77.76 
z
" style="fill: #ffffff"/>
   </g>
   <g id="matplotlib.axis_3">
    <g id="xtick_10">
     <g id="line2d_18">
      <g>
       <use xlink:href="#m829e95d134" x="730.606612" y="576.72" style="stroke: #000000; stroke-width: 0.8"/>
      </g>
     </g>
     <g id="text_16">
      <!-- −10.0 -->
      <g transform="translate(706.090362 595.8775) scale(0.16 -0.16)">
       <use xlink:href="#DejaVuSans-2212"/>
       <use xlink:href="#DejaVuSans-31" x="83.789062"/>
       <use xlink:href="#DejaVuSans-30" x="147.412109"/>
       <use xlink:href="#DejaVuSans-2e" x="211.035156"/>
       <use xlink:href="#DejaVuSans-30" x="242.822266"/>
      </g>
     </g>
    </g>
    <g id="xtick_11">
     <g id="line2d_19">
      <g>
       <use xlink:href="#m829e95d134" x="782.486777" y="576.72" style="stroke: #000000; stroke-width: 0.8"/>
      </g>
     </g>
     <g id="text_17">
      <!-- −7.5 -->
      <g transform="translate(763.060527 595.8775) scale(0.16 -0.16)">
       <use xlink:href="#DejaVuSans-2212"/>
       <use xlink:href="#DejaVuSans-37" x="83.789062"/>
       <use xlink:href="#DejaVuSans-2e" x="147.412109"/>
       <use xlink:href="#DejaVuSans-35" x="179.199219"/>
      </g>
     </g>
    </g>
    <g id="xtick_12">
     <g id="line2d_20">
      <g>
       <use xlink:href="#m829e95d134" x="834.366942" y="576.72" style="stroke: #000000; stroke-width: 0.8"/>
      </g>
     </g>
     <g id="text_18">
      <!-- −5.0 -->
      <g transform="translate(814.940692 595.8775) scale(0.16 -0.16)">
       <use xlink:href="#DejaVuSans-2212"/>
       <use xlink:href="#DejaVuSans-35" x="83.789062"/>
       <use xlink:href="#DejaVuSans-2e" x="147.412109"/>
       <use xlink:href="#DejaVuSans-30" x="179.199219"/>
      </g>
     </g>
    </g>
    <g id="xtick_13">
     <g id="line2d_21">
      <g>
       <use xlink:href="#m829e95d134" x="886.247107" y="576.72" style="stroke: #000000; stroke-width: 0.8"/>
      </g>
     </g>
     <g id="text_19">
      <!-- −2.5 -->
      <g transform="translate(866.820857 595.8775) scale(0.16 -0.16)">
       <use xlink:href="#DejaVuSans-2212"/>
       <use xlink:href="#DejaVuSans-32" x="83.789062"/>
       <use xlink:href="#DejaVuSans-2e" x="147.412109"/>
       <use xlink:href="#DejaVuSans-35" x="179.199219"/>
      </g>
     </g>
    </g>
    <g id="xtick_14">
     <g id="line2d_22">
      <g>
       <use xlink:href="#m829e95d134" x="938.127273" y="576.72" style="stroke: #000000; stroke-width: 0.8"/>
      </g>
     </g>
     <g id="text_20">
      <!-- 0.0 -->
      <g transform="translate(925.404773 595.8775) scale(0.16 -0.16)">
       <use xlink:href="#DejaVuSans-30"/>
       <use xlink:href="#DejaVuSans-2e" x="63.623047"/>
       <use xlink:href="#DejaVuSans-30" x="95.410156"/>
      </g>
     </g>
    </g>
    <g id="xtick_15">
     <g id="line2d_23">
      <g>
       <use xlink:href="#m829e95d134" x="990.007438" y="576.72" style="stroke: #000000; stroke-width: 0.8"/>
      </g>
     </g>
     <g id="text_21">
      <!-- 2.5 -->
      <g transform="translate(977.284938 595.8775) scale(0.16 -0.16)">
       <use xlink:href="#DejaVuSans-32"/>
       <use xlink:href="#DejaVuSans-2e" x="63.623047"/>
       <use xlink:href="#DejaVuSans-35" x="95.410156"/>
      </g>
     </g>
    </g>
    <g id="xtick_16">
     <g id="line2d_24">
      <g>
       <use xlink:href="#m829e95d134" x="1041.887603" y="576.72" style="stroke: #000000; stroke-width: 0.8"/>
      </g>
     </g>
     <g id="text_22">
      <!-- 5.0 -->
      <g transform="translate(1029.165103 595.8775) scale(0.16 -0.16)">
       <use xlink:href="#DejaVuSans-35"/>
       <use xlink:href="#DejaVuSans-2e" x="63.623047"/>
       <use xlink:href="#DejaVuSans-30" x="95.410156"/>
      </g>
     </g>
    </g>
    <g id="xtick_17">
     <g id="line2d_25">
      <g>
       <use xlink:href="#m829e95d134" x="1093.767769" y="576.72" style="stroke: #000000; stroke-width: 0.8"/>
      </g>
     </g>
     <g id="text_23">
      <!-- 7.5 -->
      <g transform="translate(1081.045269 595.8775) scale(0.16 -0.16)">
       <use xlink:href="#DejaVuSans-37"/>
       <use xlink:href="#DejaVuSans-2e" x="63.623047"/>
       <use xlink:href="#DejaVuSans-35" x="95.410156"/>
      </g>
     </g>
    </g>
    <g id="xtick_18">
     <g id="line2d_26">
      <g>
       <use xlink:href="#m829e95d134" x="1145.647934" y="576.72" style="stroke: #000000; stroke-width: 0.8"/>
      </g>
     </g>
     <g id="text_24">
      <!-- 10.0 -->
      <g transform="translate(1127.835434 595.8775) scale(0.16 -0.16)">
       <use xlink:href="#DejaVuSans-31"/>
       <use xlink:href="#DejaVuSans-30" x="63.623047"/>
       <use xlink:href="#DejaVuSans-2e" x="127.246094"/>
       <use xlink:href="#DejaVuSans-30" x="159.033203"/>
      </g>
     </g>
    </g>
   </g>
   <g id="matplotlib.axis_4">
    <g id="ytick_5">
     <g id="line2d_27">
      <g>
       <use xlink:href="#m2082e86a5c" x="709.854545" y="554.04" style="stroke: #000000; stroke-width: 0.8"/>
      </g>
     </g>
     <g id="text_25">
      <!-- 0.0 -->
      <g transform="translate(677.409545 560.11875) scale(0.16 -0.16)">
       <use xlink:href="#DejaVuSans-30"/>
       <use xlink:href="#DejaVuSans-2e" x="63.623047"/>
       <use xlink:href="#DejaVuSans-30" x="95.410156"/>
      </g>
     </g>
    </g>
    <g id="ytick_6">
     <g id="line2d_28">
      <g>
       <use xlink:href="#m2082e86a5c" x="709.854545" y="463.320604" style="stroke: #000000; stroke-width: 0.8"/>
      </g>
     </g>
     <g id="text_26">
      <!-- 0.2 -->
      <g transform="translate(677.409545 469.399354) scale(0.16 -0.16)">
       <use xlink:href="#DejaVuSans-30"/>
       <use xlink:href="#DejaVuSans-2e" x="63.623047"/>
       <use xlink:href="#DejaVuSans-32" x="95.410156"/>
      </g>
     </g>
    </g>
    <g id="ytick_7">
     <g id="line2d_29">
      <g>
       <use xlink:href="#m2082e86a5c" x="709.854545" y="372.601208" style="stroke: #000000; stroke-width: 0.8"/>
      </g>
     </g>
     <g id="text_27">
      <!-- 0.4 -->
      <g transform="translate(677.409545 378.679958) scale(0.16 -0.16)">
       <defs>
        <path id="DejaVuSans-34" d="M 2419 4116 
L 825 1625 
L 2419 1625 
L 2419 4116 
z
M 2253 4666 
L 3047 4666 
L 3047 1625 
L 3713 1625 
L 3713 1100 
L 3047 1100 
L 3047 0 
L 2419 0 
L 2419 1100 
L 313 1100 
L 313 1709 
L 2253 4666 
z
" transform="scale(0.015625)"/>
       </defs>
       <use xlink:href="#DejaVuSans-30"/>
       <use xlink:href="#DejaVuSans-2e" x="63.623047"/>
       <use xlink:href="#DejaVuSans-34" x="95.410156"/>
      </g>
     </g>
    </g>
    <g id="ytick_8">
     <g id="line2d_30">
      <g>
       <use xlink:href="#m2082e86a5c" x="709.854545" y="281.881811" style="stroke: #000000; stroke-width: 0.8"/>
      </g>
     </g>
     <g id="text_28">
      <!-- 0.6 -->
      <g transform="translate(677.409545 287.960561) scale(0.16 -0.16)">
       <defs>
        <path id="DejaVuSans-36" d="M 2113 2584 
Q 1688 2584 1439 2293 
Q 1191 2003 1191 1497 
Q 1191 994 1439 701 
Q 1688 409 2113 409 
Q 2538 409 2786 701 
Q 3034 994 3034 1497 
Q 3034 2003 2786 2293 
Q 2538 2584 2113 2584 
z
M 3366 4563 
L 3366 3988 
Q 3128 4100 2886 4159 
Q 2644 4219 2406 4219 
Q 1781 4219 1451 3797 
Q 1122 3375 1075 2522 
Q 1259 2794 1537 2939 
Q 1816 3084 2150 3084 
Q 2853 3084 3261 2657 
Q 3669 2231 3669 1497 
Q 3669 778 3244 343 
Q 2819 -91 2113 -91 
Q 1303 -91 875 529 
Q 447 1150 447 2328 
Q 447 3434 972 4092 
Q 1497 4750 2381 4750 
Q 2619 4750 2861 4703 
Q 3103 4656 3366 4563 
z
" transform="scale(0.015625)"/>
       </defs>
       <use xlink:href="#DejaVuSans-30"/>
       <use xlink:href="#DejaVuSans-2e" x="63.623047"/>
       <use xlink:href="#DejaVuSans-36" x="95.410156"/>
      </g>
     </g>
    </g>
    <g id="ytick_9">
     <g id="line2d_31">
      <g>
       <use xlink:href="#m2082e86a5c" x="709.854545" y="191.162415" style="stroke: #000000; stroke-width: 0.8"/>
      </g>
     </g>
     <g id="text_29">
      <!-- 0.8 -->
      <g transform="translate(677.409545 197.241165) scale(0.16 -0.16)">
       <defs>
        <path id="DejaVuSans-38" d="M 2034 2216 
Q 1584 2216 1326 1975 
Q 1069 1734 1069 1313 
Q 1069 891 1326 650 
Q 1584 409 2034 409 
Q 2484 409 2743 651 
Q 3003 894 3003 1313 
Q 3003 1734 2745 1975 
Q 2488 2216 2034 2216 
z
M 1403 2484 
Q 997 2584 770 2862 
Q 544 3141 544 3541 
Q 544 4100 942 4425 
Q 1341 4750 2034 4750 
Q 2731 4750 3128 4425 
Q 3525 4100 3525 3541 
Q 3525 3141 3298 2862 
Q 3072 2584 2669 2484 
Q 3125 2378 3379 2068 
Q 3634 1759 3634 1313 
Q 3634 634 3220 271 
Q 2806 -91 2034 -91 
Q 1263 -91 848 271 
Q 434 634 434 1313 
Q 434 1759 690 2068 
Q 947 2378 1403 2484 
z
M 1172 3481 
Q 1172 3119 1398 2916 
Q 1625 2713 2034 2713 
Q 2441 2713 2670 2916 
Q 2900 3119 2900 3481 
Q 2900 3844 2670 4047 
Q 2441 4250 2034 4250 
Q 1625 4250 1398 4047 
Q 1172 3844 1172 3481 
z
" transform="scale(0.015625)"/>
       </defs>
       <use xlink:href="#DejaVuSans-30"/>
       <use xlink:href="#DejaVuSans-2e" x="63.623047"/>
       <use xlink:href="#DejaVuSans-38" x="95.410156"/>
      </g>
     </g>
    </g>
    <g id="ytick_10">
     <g id="line2d_32">
      <g>
       <use xlink:href="#m2082e86a5c" x="709.854545" y="100.443019" style="stroke: #000000; stroke-width: 0.8"/>
      </g>
     </g>
     <g id="text_30">
      <!-- 1.0 -->
      <g transform="translate(677.409545 106.521769) scale(0.16 -0.16)">
       <use xlink:href="#DejaVuSans-31"/>
       <use xlink:href="#DejaVuSans-2e" x="63.623047"/>
       <use xlink:href="#DejaVuSans-30" x="95.410156"/>
      </g>
     </g>
    </g>
   </g>
   <g id="line2d_33">
    <path d="M 730.606612 554.04 
L 851.089078 554.04 
L 851.504534 550.920076 
L 851.919991 542.770988 
L 852.750905 517.911209 
L 853.581818 493.214049 
L 855.659102 440.396569 
L 858.982756 355.721179 
L 859.81367 338.782567 
L 861.06004 320.363061 
L 861.890954 310.188347 
L 862.721867 303.097156 
L 863.968238 295.4887 
L 864.383694 293.676614 
L 864.799151 292.626394 
L 865.214608 292.223261 
L 866.045522 292.128702 
L 866.460978 291.851695 
L 866.876435 291.017007 
L 867.291892 289.432536 
L 868.538262 282.388812 
L 869.369176 276.346511 
L 870.615546 263.460422 
L 871.861916 248.797611 
L 874.354657 214.457561 
L 875.601027 202.583956 
L 876.431941 195.824643 
L 877.262855 191.081455 
L 878.509225 185.840037 
L 878.924682 184.627011 
L 879.340138 183.955017 
L 879.755595 183.71207 
L 880.586509 183.649304 
L 881.001966 183.415934 
L 881.417422 182.758995 
L 881.832879 181.570093 
L 883.079249 176.472263 
L 883.910163 171.992686 
L 885.156533 162.430378 
L 886.402904 151.30252 
L 888.895644 124.750192 
L 890.142015 115.363713 
L 890.972928 110.005841 
L 891.803842 106.265059 
L 893.050212 102.0558 
L 893.465669 101.121891 
L 893.881126 100.625252 
L 894.296583 100.462226 
L 896.789323 100.443019 
L 981.957963 100.462226 
L 982.37342 100.625252 
L 982.788876 101.121891 
L 983.204333 102.0558 
L 984.035247 104.765706 
L 984.86616 107.945537 
L 985.697074 112.519157 
L 986.943444 121.427821 
L 987.774358 128.516431 
L 989.020728 142.10182 
L 990.267099 155.371916 
L 991.928926 169.044897 
L 992.759839 174.453921 
L 994.00621 179.995826 
L 994.837123 182.758995 
L 995.25258 183.415934 
L 995.668037 183.649304 
L 996.49895 183.71207 
L 996.914407 183.955017 
L 997.329864 184.627011 
L 997.745321 185.840037 
L 998.991691 191.081455 
L 999.822604 195.824643 
L 1000.653518 202.583956 
L 1001.899888 214.457561 
L 1002.730802 224.796879 
L 1005.223543 258.899172 
L 1006.88537 276.346511 
L 1007.716283 282.388812 
L 1008.962654 289.432536 
L 1009.37811 291.017007 
L 1009.793567 291.851695 
L 1010.209024 292.128702 
L 1011.039937 292.223261 
L 1011.455394 292.626394 
L 1011.870851 293.676614 
L 1012.286308 295.4887 
L 1013.532678 303.097156 
L 1014.363592 310.188347 
L 1015.194505 320.363061 
L 1016.440876 338.782567 
L 1017.271789 355.721179 
L 1018.518159 387.593088 
L 1021.841814 473.420431 
L 1023.088184 504.815078 
L 1024.334554 542.770988 
L 1024.750011 550.920076 
L 1025.165468 554.04 
L 1145.647934 554.04 
L 1145.647934 554.04 
" clip-path="url(#p3e87909e58)" style="fill: none; stroke: #ff0000; stroke-width: 1.5; stroke-linecap: square"/>
   </g>
   <g id="line2d_34">
    <path d="M 730.606612 554.04 
L 764.258611 554.04 
L 764.674067 552.680944 
L 765.504981 545.146436 
L 766.335895 534.368316 
L 769.244092 490.57369 
L 772.567746 448.975517 
L 774.64503 421.747568 
L 777.137771 390.378427 
L 779.630512 358.150642 
L 780.876882 344.562976 
L 782.123252 333.652342 
L 783.785079 321.761279 
L 785.446906 311.311464 
L 786.27782 307.151703 
L 787.108734 303.828223 
L 788.770561 298.454128 
L 790.016931 294.972772 
L 790.847845 293.340596 
L 791.263301 292.817704 
L 791.678758 292.476513 
L 792.509672 292.186771 
L 794.586956 291.961085 
L 795.002412 291.707182 
L 795.417869 291.293624 
L 796.248783 289.895643 
L 797.079696 287.846778 
L 799.15698 281.741342 
L 799.987894 278.886469 
L 800.818807 275.414457 
L 802.065178 269.105427 
L 804.973375 252.829784 
L 806.219745 244.462971 
L 809.958856 218.033669 
L 811.205227 211.230075 
L 813.282511 201.667716 
L 814.528881 196.570654 
L 815.359795 193.805333 
L 816.606165 190.601826 
L 818.683449 186.214456 
L 819.514362 184.881091 
L 820.345276 184.074685 
L 821.176189 183.744612 
L 822.42256 183.679949 
L 823.253473 183.618384 
L 824.084387 183.299515 
L 824.9153 182.51003 
L 825.746214 181.202808 
L 827.408041 177.82887 
L 828.654411 174.993003 
L 829.485325 172.656146 
L 830.731695 168.248968 
L 833.224436 158.135701 
L 834.470806 152.364288 
L 836.132633 143.290086 
L 838.625374 129.53832 
L 839.871744 123.884887 
L 841.533572 117.596003 
L 843.195399 111.852376 
L 844.441769 108.418584 
L 845.688139 105.88061 
L 847.765423 102.350515 
L 848.596337 101.314659 
L 849.42725 100.711049 
L 850.258164 100.482766 
L 851.504534 100.453749 
L 851.919991 100.583022 
L 852.335448 101.016735 
L 852.750905 101.884129 
L 853.581818 104.539805 
L 854.412732 107.664926 
L 855.243645 112.103346 
L 856.490016 120.940238 
L 857.320929 127.899156 
L 858.5673 141.364473 
L 859.81367 154.772597 
L 861.06004 165.265889 
L 861.890954 171.565697 
L 862.721867 176.180356 
L 863.968238 181.345156 
L 864.383694 182.608811 
L 864.799151 183.347206 
L 865.214608 183.631825 
L 866.045522 183.69868 
L 866.460978 183.894739 
L 866.876435 184.487397 
L 867.291892 185.620251 
L 868.122805 188.938798 
L 868.953719 192.846636 
L 869.784633 198.482449 
L 871.031003 209.595356 
L 871.861916 218.514584 
L 873.108287 235.898145 
L 874.354657 253.317556 
L 876.016484 271.724003 
L 876.847398 279.181711 
L 878.093768 286.909247 
L 878.924682 290.820956 
L 879.340138 291.766619 
L 879.755595 292.109769 
L 880.586509 292.198533 
L 881.001966 292.528962 
L 881.417422 293.462494 
L 881.832879 295.164761 
L 882.663793 299.97971 
L 883.494706 305.716361 
L 884.32562 314.187978 
L 885.57199 331.090239 
L 886.402904 345.34706 
L 887.233817 364.152779 
L 893.050212 515.823453 
L 893.881126 541.183588 
L 894.296583 549.865751 
L 894.712039 554.04 
L 981.542506 554.04 
L 981.957963 549.865751 
L 982.37342 541.183588 
L 984.86616 471.881911 
L 988.605271 374.797924 
L 989.851642 345.34706 
L 990.682555 331.090239 
L 991.928926 314.187978 
L 992.759839 305.716361 
L 993.590753 299.97971 
L 994.421666 295.164761 
L 994.837123 293.462494 
L 995.25258 292.528962 
L 995.668037 292.198533 
L 996.49895 292.109769 
L 996.914407 291.766619 
L 997.329864 290.820956 
L 997.745321 289.126791 
L 998.991691 281.989792 
L 999.822604 275.773978 
L 1001.068975 262.75889 
L 1002.315345 247.92468 
L 1004.808086 213.765231 
L 1006.054456 202.015042 
L 1006.88537 195.380625 
L 1007.716283 190.782717 
L 1008.962654 185.620251 
L 1009.37811 184.487397 
L 1009.793567 183.894739 
L 1010.209024 183.69868 
L 1011.039937 183.631825 
L 1011.455394 183.347206 
L 1011.870851 182.608811 
L 1012.701765 179.733687 
L 1013.948135 174.105651 
L 1014.779048 168.553852 
L 1016.440876 154.772597 
L 1017.687246 141.364473 
L 1018.933616 127.899156 
L 1019.76453 120.940238 
L 1021.0109 112.103346 
L 1021.841814 107.664926 
L 1023.088184 103.121905 
L 1023.503641 101.884129 
L 1023.919098 101.016735 
L 1024.334554 100.583022 
L 1025.165468 100.44 
L 1026.411838 100.560833 
L 1027.242752 100.957549 
L 1028.073665 101.783233 
L 1028.904579 102.993341 
L 1030.981863 106.660306 
L 1031.812776 108.418584 
L 1032.64369 110.593589 
L 1033.89006 114.632782 
L 1035.967344 122.227224 
L 1037.213715 127.526331 
L 1038.460085 133.894442 
L 1042.614653 156.316987 
L 1044.691937 164.947725 
L 1046.353764 171.297669 
L 1047.184677 173.886073 
L 1048.431048 176.932991 
L 1050.508331 181.202808 
L 1051.339245 182.51003 
L 1052.170159 183.299515 
L 1053.001072 183.618384 
L 1054.247442 183.679752 
L 1055.078356 183.744612 
L 1055.90927 184.074685 
L 1056.740183 184.881091 
L 1057.571097 186.214456 
L 1059.232924 189.673365 
L 1060.479294 192.633488 
L 1061.310208 195.114984 
L 1062.556578 199.875401 
L 1064.633862 209.219304 
L 1065.880232 215.607324 
L 1067.126603 223.375266 
L 1069.203887 238.392847 
L 1070.865714 250.178339 
L 1072.112084 257.733523 
L 1075.020281 273.43052 
L 1076.266652 278.886469 
L 1077.513022 283.021211 
L 1079.590306 288.932678 
L 1080.42122 290.69119 
L 1081.252133 291.707182 
L 1082.083047 292.094701 
L 1083.329417 292.157016 
L 1084.160331 292.280315 
L 1084.575787 292.476513 
L 1084.991244 292.817704 
L 1085.406701 293.340596 
L 1086.237614 294.972772 
L 1087.483985 298.454128 
L 1089.145812 303.828223 
L 1089.976725 307.151703 
L 1090.807639 311.311464 
L 1092.054009 318.981109 
L 1093.715836 330.504562 
L 1094.962207 340.630885 
L 1096.208577 353.351893 
L 1097.870404 373.762008 
L 1101.609515 421.747568 
L 1103.271342 443.234028 
L 1105.348626 470.927035 
L 1107.841367 501.751884 
L 1110.749564 545.146436 
L 1111.580478 552.680944 
L 1111.995935 554.04 
L 1145.647934 554.04 
L 1145.647934 554.04 
" clip-path="url(#p3e87909e58)" style="fill: none; stroke: #0000ff; stroke-width: 1.5; stroke-linecap: square"/>
   </g>
   <g id="patch_9">
    <path d="M 709.854545 576.72 
L 709.854545 77.76 
" style="fill: none; stroke: #000000; stroke-width: 0.8; stroke-linejoin: miter; stroke-linecap: square"/>
   </g>
   <g id="patch_10">
    <path d="M 1166.4 576.72 
L 1166.4 77.76 
" style="fill: none; stroke: #000000; stroke-width: 0.8; stroke-linejoin: miter; stroke-linecap: square"/>
   </g>
   <g id="patch_11">
    <path d="M 709.854545 576.72 
L 1166.4 576.72 
" style="fill: none; stroke: #000000; stroke-width: 0.8; stroke-linejoin: miter; stroke-linecap: square"/>
   </g>
   <g id="patch_12">
    <path d="M 709.854545 77.76 
L 1166.4 77.76 
" style="fill: none; stroke: #000000; stroke-width: 0.8; stroke-linejoin: miter; stroke-linecap: square"/>
   </g>
   <g id="legend_2">
    <g id="patch_13">
     <path d="M 972.9875 137.53 
L 1155.2 137.53 
Q 1158.4 137.53 1158.4 134.33 
L 1158.4 88.96 
Q 1158.4 85.76 1155.2 85.76 
L 972.9875 85.76 
Q 969.7875 85.76 969.7875 88.96 
L 969.7875 134.33 
Q 969.7875 137.53 972.9875 137.53 
z
" style="fill: #ffffff; opacity: 0.8; stroke: #cccccc; stroke-linejoin: miter"/>
    </g>
    <g id="line2d_35">
     <path d="M 976.1875 98.7175 
L 992.1875 98.7175 
L 1008.1875 98.7175 
" style="fill: none; stroke: #ff0000; stroke-width: 1.5; stroke-linecap: square"/>
    </g>
    <g id="text_31">
     <!-- wavelet -->
     <g transform="translate(1020.9875 104.3175) scale(0.16 -0.16)">
      <use xlink:href="#DejaVuSans-77"/>
      <use xlink:href="#DejaVuSans-61" x="81.787109"/>
      <use xlink:href="#DejaVuSans-76" x="143.066406"/>
      <use xlink:href="#DejaVuSans-65" x="202.246094"/>
      <use xlink:href="#DejaVuSans-6c" x="263.769531"/>
      <use xlink:href="#DejaVuSans-65" x="291.552734"/>
      <use xlink:href="#DejaVuSans-74" x="353.076172"/>
     </g>
    </g>
    <g id="line2d_36">
     <path d="M 976.1875 122.2025 
L 992.1875 122.2025 
L 1008.1875 122.2025 
" style="fill: none; stroke: #0000ff; stroke-width: 1.5; stroke-linecap: square"/>
    </g>
    <g id="text_32">
     <!-- scalling function -->
     <g transform="translate(1020.9875 127.8025) scale(0.16 -0.16)">
      <use xlink:href="#DejaVuSans-73"/>
      <use xlink:href="#DejaVuSans-63" x="52.099609"/>
      <use xlink:href="#DejaVuSans-61" x="107.080078"/>
      <use xlink:href="#DejaVuSans-6c" x="168.359375"/>
      <use xlink:href="#DejaVuSans-6c" x="196.142578"/>
      <use xlink:href="#DejaVuSans-69" x="223.925781"/>
      <use xlink:href="#DejaVuSans-6e" x="251.708984"/>
      <use xlink:href="#DejaVuSans-67" x="315.087891"/>
      <use xlink:href="#DejaVuSans-20" x="378.564453"/>
      <use xlink:href="#DejaVuSans-66" x="410.351562"/>
      <use xlink:href="#DejaVuSans-75" x="445.556641"/>
      <use xlink:href="#DejaVuSans-6e" x="508.935547"/>
      <use xlink:href="#DejaVuSans-63" x="572.314453"/>
      <use xlink:href="#DejaVuSans-74" x="627.294922"/>
      <use xlink:href="#DejaVuSans-69" x="666.503906"/>
      <use xlink:href="#DejaVuSans-6f" x="694.287109"/>
      <use xlink:href="#DejaVuSans-6e" x="755.46875"/>
     </g>
    </g>
   </g>
  </g>
 </g>
 <defs>
  <clipPath id="pe282dc3dc8">
   <rect x="162" y="77.76" width="456.545455" height="498.96"/>
  </clipPath>
  <clipPath id="p3e87909e58">
   <rect x="709.854545" y="77.76" width="456.545455" height="498.96"/>
  </clipPath>
 </defs>
</svg>
