<?xml version="1.0" encoding="utf-8" standalone="no"?>
<!DOCTYPE svg PUBLIC "-//W3C//DTD SVG 1.1//EN"
  "http://www.w3.org/Graphics/SVG/1.1/DTD/svg11.dtd">
<svg xmlns:xlink="http://www.w3.org/1999/xlink" width="1296pt" height="648pt" viewBox="0 0 1296 648" xmlns="http://www.w3.org/2000/svg" version="1.1">
 <metadata>
  <rdf:RDF xmlns:dc="http://purl.org/dc/elements/1.1/" xmlns:cc="http://creativecommons.org/ns#" xmlns:rdf="http://www.w3.org/1999/02/22-rdf-syntax-ns#">
   <cc:Work>
    <dc:type rdf:resource="http://purl.org/dc/dcmitype/StillImage"/>
    <dc:date>2023-03-28T18:58:36.825557</dc:date>
    <dc:format>image/svg+xml</dc:format>
    <dc:creator>
     <cc:Agent>
      <dc:title>Matplotlib v3.7.1, https://matplotlib.org/</dc:title>
     </cc:Agent>
    </dc:creator>
   </cc:Work>
  </rdf:RDF>
 </metadata>
 <defs>
  <style type="text/css">*{stroke-linejoin: round; stroke-linecap: butt}</style>
 </defs>
 <g id="figure_1">
  <g id="patch_1">
   <path d="M 0 648 
L 1296 648 
L 1296 0 
L 0 0 
z
" style="fill: #ffffff"/>
  </g>
  <g id="axes_1">
   <g id="patch_2">
    <path d="M 162 576.72 
L 618.545455 576.72 
L 618.545455 77.76 
L 162 77.76 
z
" style="fill: #ffffff"/>
   </g>
   <g id="matplotlib.axis_1">
    <g id="xtick_1">
     <g id="line2d_1">
      <defs>
       <path id="m2b61afd0f0" d="M 0 0 
L 0 3.5 
" style="stroke: #000000; stroke-width: 0.8"/>
      </defs>
      <g>
       <use xlink:href="#m2b61afd0f0" x="182.752066" y="576.72" style="stroke: #000000; stroke-width: 0.8"/>
      </g>
     </g>
     <g id="text_1">
      <!-- 0 -->
      <g transform="translate(177.662066 595.8775) scale(0.16 -0.16)">
       <defs>
        <path id="DejaVuSans-30" d="M 2034 4250 
Q 1547 4250 1301 3770 
Q 1056 3291 1056 2328 
Q 1056 1369 1301 889 
Q 1547 409 2034 409 
Q 2525 409 2770 889 
Q 3016 1369 3016 2328 
Q 3016 3291 2770 3770 
Q 2525 4250 2034 4250 
z
M 2034 4750 
Q 2819 4750 3233 4129 
Q 3647 3509 3647 2328 
Q 3647 1150 3233 529 
Q 2819 -91 2034 -91 
Q 1250 -91 836 529 
Q 422 1150 422 2328 
Q 422 3509 836 4129 
Q 1250 4750 2034 4750 
z
" transform="scale(0.015625)"/>
       </defs>
       <use xlink:href="#DejaVuSans-30"/>
      </g>
     </g>
    </g>
    <g id="xtick_2">
     <g id="line2d_2">
      <g>
       <use xlink:href="#m2b61afd0f0" x="266.598798" y="576.72" style="stroke: #000000; stroke-width: 0.8"/>
      </g>
     </g>
     <g id="text_2">
      <!-- 20 -->
      <g transform="translate(256.418798 595.8775) scale(0.16 -0.16)">
       <defs>
        <path id="DejaVuSans-32" d="M 1228 531 
L 3431 531 
L 3431 0 
L 469 0 
L 469 531 
Q 828 903 1448 1529 
Q 2069 2156 2228 2338 
Q 2531 2678 2651 2914 
Q 2772 3150 2772 3378 
Q 2772 3750 2511 3984 
Q 2250 4219 1831 4219 
Q 1534 4219 1204 4116 
Q 875 4013 500 3803 
L 500 4441 
Q 881 4594 1212 4672 
Q 1544 4750 1819 4750 
Q 2544 4750 2975 4387 
Q 3406 4025 3406 3419 
Q 3406 3131 3298 2873 
Q 3191 2616 2906 2266 
Q 2828 2175 2409 1742 
Q 1991 1309 1228 531 
z
" transform="scale(0.015625)"/>
       </defs>
       <use xlink:href="#DejaVuSans-32"/>
       <use xlink:href="#DejaVuSans-30" x="63.623047"/>
      </g>
     </g>
    </g>
    <g id="xtick_3">
     <g id="line2d_3">
      <g>
       <use xlink:href="#m2b61afd0f0" x="350.44553" y="576.72" style="stroke: #000000; stroke-width: 0.8"/>
      </g>
     </g>
     <g id="text_3">
      <!-- 40 -->
      <g transform="translate(340.26553 595.8775) scale(0.16 -0.16)">
       <defs>
        <path id="DejaVuSans-34" d="M 2419 4116 
L 825 1625 
L 2419 1625 
L 2419 4116 
z
M 2253 4666 
L 3047 4666 
L 3047 1625 
L 3713 1625 
L 3713 1100 
L 3047 1100 
L 3047 0 
L 2419 0 
L 2419 1100 
L 313 1100 
L 313 1709 
L 2253 4666 
z
" transform="scale(0.015625)"/>
       </defs>
       <use xlink:href="#DejaVuSans-34"/>
       <use xlink:href="#DejaVuSans-30" x="63.623047"/>
      </g>
     </g>
    </g>
    <g id="xtick_4">
     <g id="line2d_4">
      <g>
       <use xlink:href="#m2b61afd0f0" x="434.292261" y="576.72" style="stroke: #000000; stroke-width: 0.8"/>
      </g>
     </g>
     <g id="text_4">
      <!-- 60 -->
      <g transform="translate(424.112261 595.8775) scale(0.16 -0.16)">
       <defs>
        <path id="DejaVuSans-36" d="M 2113 2584 
Q 1688 2584 1439 2293 
Q 1191 2003 1191 1497 
Q 1191 994 1439 701 
Q 1688 409 2113 409 
Q 2538 409 2786 701 
Q 3034 994 3034 1497 
Q 3034 2003 2786 2293 
Q 2538 2584 2113 2584 
z
M 3366 4563 
L 3366 3988 
Q 3128 4100 2886 4159 
Q 2644 4219 2406 4219 
Q 1781 4219 1451 3797 
Q 1122 3375 1075 2522 
Q 1259 2794 1537 2939 
Q 1816 3084 2150 3084 
Q 2853 3084 3261 2657 
Q 3669 2231 3669 1497 
Q 3669 778 3244 343 
Q 2819 -91 2113 -91 
Q 1303 -91 875 529 
Q 447 1150 447 2328 
Q 447 3434 972 4092 
Q 1497 4750 2381 4750 
Q 2619 4750 2861 4703 
Q 3103 4656 3366 4563 
z
" transform="scale(0.015625)"/>
       </defs>
       <use xlink:href="#DejaVuSans-36"/>
       <use xlink:href="#DejaVuSans-30" x="63.623047"/>
      </g>
     </g>
    </g>
    <g id="xtick_5">
     <g id="line2d_5">
      <g>
       <use xlink:href="#m2b61afd0f0" x="518.138993" y="576.72" style="stroke: #000000; stroke-width: 0.8"/>
      </g>
     </g>
     <g id="text_5">
      <!-- 80 -->
      <g transform="translate(507.958993 595.8775) scale(0.16 -0.16)">
       <defs>
        <path id="DejaVuSans-38" d="M 2034 2216 
Q 1584 2216 1326 1975 
Q 1069 1734 1069 1313 
Q 1069 891 1326 650 
Q 1584 409 2034 409 
Q 2484 409 2743 651 
Q 3003 894 3003 1313 
Q 3003 1734 2745 1975 
Q 2488 2216 2034 2216 
z
M 1403 2484 
Q 997 2584 770 2862 
Q 544 3141 544 3541 
Q 544 4100 942 4425 
Q 1341 4750 2034 4750 
Q 2731 4750 3128 4425 
Q 3525 4100 3525 3541 
Q 3525 3141 3298 2862 
Q 3072 2584 2669 2484 
Q 3125 2378 3379 2068 
Q 3634 1759 3634 1313 
Q 3634 634 3220 271 
Q 2806 -91 2034 -91 
Q 1263 -91 848 271 
Q 434 634 434 1313 
Q 434 1759 690 2068 
Q 947 2378 1403 2484 
z
M 1172 3481 
Q 1172 3119 1398 2916 
Q 1625 2713 2034 2713 
Q 2441 2713 2670 2916 
Q 2900 3119 2900 3481 
Q 2900 3844 2670 4047 
Q 2441 4250 2034 4250 
Q 1625 4250 1398 4047 
Q 1172 3844 1172 3481 
z
" transform="scale(0.015625)"/>
       </defs>
       <use xlink:href="#DejaVuSans-38"/>
       <use xlink:href="#DejaVuSans-30" x="63.623047"/>
      </g>
     </g>
    </g>
    <g id="xtick_6">
     <g id="line2d_6">
      <g>
       <use xlink:href="#m2b61afd0f0" x="601.985725" y="576.72" style="stroke: #000000; stroke-width: 0.8"/>
      </g>
     </g>
     <g id="text_6">
      <!-- 100 -->
      <g transform="translate(586.715725 595.8775) scale(0.16 -0.16)">
       <defs>
        <path id="DejaVuSans-31" d="M 794 531 
L 1825 531 
L 1825 4091 
L 703 3866 
L 703 4441 
L 1819 4666 
L 2450 4666 
L 2450 531 
L 3481 531 
L 3481 0 
L 794 0 
L 794 531 
z
" transform="scale(0.015625)"/>
       </defs>
       <use xlink:href="#DejaVuSans-31"/>
       <use xlink:href="#DejaVuSans-30" x="63.623047"/>
       <use xlink:href="#DejaVuSans-30" x="127.246094"/>
      </g>
     </g>
    </g>
   </g>
   <g id="matplotlib.axis_2">
    <g id="ytick_1">
     <g id="line2d_7">
      <defs>
       <path id="m2bc7d09e25" d="M 0 0 
L -3.5 0 
" style="stroke: #000000; stroke-width: 0.8"/>
      </defs>
      <g>
       <use xlink:href="#m2bc7d09e25" x="162" y="554.033175" style="stroke: #000000; stroke-width: 0.8"/>
      </g>
     </g>
     <g id="text_7">
      <!-- 0.0 -->
      <g transform="translate(129.555 560.111925) scale(0.16 -0.16)">
       <defs>
        <path id="DejaVuSans-2e" d="M 684 794 
L 1344 794 
L 1344 0 
L 684 0 
L 684 794 
z
" transform="scale(0.015625)"/>
       </defs>
       <use xlink:href="#DejaVuSans-30"/>
       <use xlink:href="#DejaVuSans-2e" x="63.623047"/>
       <use xlink:href="#DejaVuSans-30" x="95.410156"/>
      </g>
     </g>
    </g>
    <g id="ytick_2">
     <g id="line2d_8">
      <g>
       <use xlink:href="#m2bc7d09e25" x="162" y="463.31454" style="stroke: #000000; stroke-width: 0.8"/>
      </g>
     </g>
     <g id="text_8">
      <!-- 0.2 -->
      <g transform="translate(129.555 469.39329) scale(0.16 -0.16)">
       <use xlink:href="#DejaVuSans-30"/>
       <use xlink:href="#DejaVuSans-2e" x="63.623047"/>
       <use xlink:href="#DejaVuSans-32" x="95.410156"/>
      </g>
     </g>
    </g>
    <g id="ytick_3">
     <g id="line2d_9">
      <g>
       <use xlink:href="#m2bc7d09e25" x="162" y="372.595905" style="stroke: #000000; stroke-width: 0.8"/>
      </g>
     </g>
     <g id="text_9">
      <!-- 0.4 -->
      <g transform="translate(129.555 378.674655) scale(0.16 -0.16)">
       <use xlink:href="#DejaVuSans-30"/>
       <use xlink:href="#DejaVuSans-2e" x="63.623047"/>
       <use xlink:href="#DejaVuSans-34" x="95.410156"/>
      </g>
     </g>
    </g>
    <g id="ytick_4">
     <g id="line2d_10">
      <g>
       <use xlink:href="#m2bc7d09e25" x="162" y="281.87727" style="stroke: #000000; stroke-width: 0.8"/>
      </g>
     </g>
     <g id="text_10">
      <!-- 0.6 -->
      <g transform="translate(129.555 287.95602) scale(0.16 -0.16)">
       <use xlink:href="#DejaVuSans-30"/>
       <use xlink:href="#DejaVuSans-2e" x="63.623047"/>
       <use xlink:href="#DejaVuSans-36" x="95.410156"/>
      </g>
     </g>
    </g>
    <g id="ytick_5">
     <g id="line2d_11">
      <g>
       <use xlink:href="#m2bc7d09e25" x="162" y="191.158635" style="stroke: #000000; stroke-width: 0.8"/>
      </g>
     </g>
     <g id="text_11">
      <!-- 0.8 -->
      <g transform="translate(129.555 197.237385) scale(0.16 -0.16)">
       <use xlink:href="#DejaVuSans-30"/>
       <use xlink:href="#DejaVuSans-2e" x="63.623047"/>
       <use xlink:href="#DejaVuSans-38" x="95.410156"/>
      </g>
     </g>
    </g>
    <g id="ytick_6">
     <g id="line2d_12">
      <g>
       <use xlink:href="#m2bc7d09e25" x="162" y="100.44" style="stroke: #000000; stroke-width: 0.8"/>
      </g>
     </g>
     <g id="text_12">
      <!-- 1.0 -->
      <g transform="translate(129.555 106.51875) scale(0.16 -0.16)">
       <use xlink:href="#DejaVuSans-31"/>
       <use xlink:href="#DejaVuSans-2e" x="63.623047"/>
       <use xlink:href="#DejaVuSans-30" x="95.410156"/>
      </g>
     </g>
    </g>
   </g>
   <g id="line2d_13">
    <path d="M 182.752066 554.033175 
L 186.944403 554.033167 
L 191.136739 554.031483 
L 195.329076 554.007436 
L 199.521412 553.885007 
L 203.713749 553.514267 
L 207.906086 552.684169 
L 212.098422 551.158432 
L 216.290759 548.698572 
L 220.483095 545.079757 
L 224.675432 540.12591 
L 228.867769 533.733778 
L 233.060105 525.866023 
L 237.252442 516.517403 
L 241.444778 505.688189 
L 245.637115 493.3881 
L 249.829452 479.668551 
L 254.021788 464.65157 
L 258.214125 448.528809 
L 262.406461 431.53121 
L 266.598798 413.897693 
L 270.791134 395.86143 
L 274.983471 377.621121 
L 279.175808 359.308185 
L 283.368144 340.981835 
L 287.560481 322.654838 
L 291.752817 304.327891 
L 295.945154 286.004688 
L 300.137491 267.716389 
L 304.329827 249.556986 
L 308.522164 231.694142 
L 312.7145 214.348735 
L 316.906837 197.758763 
L 321.099174 182.161509 
L 325.29151 167.773256 
L 329.483847 154.75293 
L 333.676183 143.185424 
L 337.86852 133.096341 
L 342.060856 124.488204 
L 346.253193 117.359973 
L 350.44553 111.695235 
L 354.637866 107.426554 
L 358.830203 104.41319 
L 363.022539 102.449966 
L 367.214876 101.30195 
L 371.407213 100.730361 
L 375.599549 100.507024 
L 379.791886 100.447845 
L 383.984222 100.440205 
L 388.176559 100.44 
L 392.368896 100.44 
L 396.561232 100.440205 
L 400.753569 100.447845 
L 404.945905 100.507024 
L 409.138242 100.730361 
L 413.330579 101.30195 
L 417.522915 102.449966 
L 421.715252 104.41319 
L 425.907588 107.426554 
L 430.099925 111.695235 
L 434.292261 117.359973 
L 438.484598 124.488204 
L 442.676935 133.096341 
L 446.869271 143.185424 
L 451.061608 154.75293 
L 455.253944 167.773256 
L 459.446281 182.161509 
L 463.638618 197.758763 
L 467.830954 214.348735 
L 472.023291 231.694142 
L 476.215627 249.556986 
L 480.407964 267.716389 
L 484.600301 286.004688 
L 488.792637 304.327891 
L 492.984974 322.654838 
L 497.17731 340.981835 
L 501.369647 359.308185 
L 505.561983 377.621121 
L 509.75432 395.86143 
L 513.946657 413.897693 
L 518.138993 431.53121 
L 522.33133 448.528809 
L 526.523666 464.65157 
L 530.716003 479.668551 
L 534.90834 493.3881 
L 539.100676 505.688189 
L 543.293013 516.517403 
L 547.485349 525.866023 
L 551.677686 533.733778 
L 555.870023 540.12591 
L 560.062359 545.079757 
L 564.254696 548.698572 
L 568.447032 551.158432 
L 572.639369 552.684169 
L 576.831705 553.514267 
L 581.024042 553.885007 
L 585.216379 554.007436 
L 589.408715 554.031483 
L 593.601052 554.033167 
L 597.793388 554.033175 
" clip-path="url(#p558eb6e539)" style="fill: none; stroke: #440154; stroke-width: 1.5; stroke-linecap: square"/>
   </g>
   <g id="line2d_14">
    <path d="M 182.752066 554.04 
L 186.944403 553.513805 
L 191.136739 550.000069 
L 195.329076 544.098153 
L 199.521412 536.958224 
L 203.713749 526.474551 
L 207.906086 514.254956 
L 212.098422 500.299556 
L 216.290759 483.000644 
L 220.483095 464.891853 
L 224.675432 449.157755 
L 228.867769 436.4115 
L 233.060105 424.717726 
L 237.252442 416.011497 
L 241.444778 409.693374 
L 245.637115 404.613026 
L 249.829452 402.875303 
L 254.021788 402.753386 
L 258.214125 401.015666 
L 262.406461 395.935324 
L 266.598798 389.617212 
L 270.791134 380.910996 
L 274.983471 369.217242 
L 279.175808 356.471011 
L 283.368144 340.736945 
L 287.560481 322.628195 
L 291.752817 305.329337 
L 295.945154 291.374009 
L 300.137491 279.154514 
L 304.329827 268.670983 
L 308.522164 261.531274 
L 312.7145 255.629744 
L 316.906837 252.116899 
L 321.099174 251.595105 
L 325.29151 251.073312 
L 329.483847 247.560473 
L 333.676183 241.65895 
L 337.86852 234.519254 
L 342.060856 224.035739 
L 346.253193 211.816265 
L 350.44553 197.860965 
L 354.637866 180.562144 
L 358.830203 162.453441 
L 363.022539 146.719437 
L 367.214876 133.97329 
L 371.407213 122.279654 
L 375.599549 113.573613 
L 379.791886 107.255786 
L 383.984222 102.176 
L 388.176559 100.44 
L 392.368896 100.44 
L 396.561232 102.176 
L 400.753569 107.255786 
L 404.945905 113.573613 
L 409.138242 122.279654 
L 413.330579 133.97329 
L 417.522915 146.719437 
L 421.715252 162.453441 
L 425.907588 180.562144 
L 430.099925 197.860965 
L 434.292261 211.816265 
L 438.484598 224.035739 
L 442.676935 234.519254 
L 446.869271 241.65895 
L 451.061608 247.560473 
L 455.253944 251.073312 
L 459.446281 251.595105 
L 463.638618 252.116899 
L 467.830954 255.629744 
L 472.023291 261.531274 
L 476.215627 268.670983 
L 480.407964 279.154514 
L 484.600301 291.374009 
L 488.792637 305.329337 
L 492.984974 322.628195 
L 497.17731 340.736945 
L 501.369647 356.471011 
L 505.561983 369.217242 
L 509.75432 380.910996 
L 513.946657 389.617212 
L 518.138993 395.935324 
L 522.33133 401.015666 
L 526.523666 402.753386 
L 530.716003 402.875303 
L 534.90834 404.613026 
L 539.100676 409.693374 
L 543.293013 416.011497 
L 547.485349 424.717726 
L 551.677686 436.4115 
L 555.870023 449.157755 
L 560.062359 464.891853 
L 564.254696 483.000644 
L 568.447032 500.299556 
L 572.639369 514.254956 
L 576.831705 526.474551 
L 581.024042 536.958224 
L 585.216379 544.098153 
L 589.408715 550.000069 
L 593.601052 553.513805 
L 597.793388 554.04 
" clip-path="url(#p558eb6e539)" style="fill: none; stroke: #46327e; stroke-width: 1.5; stroke-linecap: square"/>
   </g>
   <g id="line2d_15">
    <path d="M 182.752066 554.033129 
L 186.944403 554.007969 
L 191.136739 553.46984 
L 195.329076 551.335508 
L 199.521412 546.646375 
L 203.713749 539.148978 
L 207.906086 528.840042 
L 212.098422 515.719567 
L 216.290759 499.790829 
L 220.483095 481.307292 
L 224.675432 461.227556 
L 228.867769 440.634869 
L 233.060105 420.017024 
L 237.252442 399.399158 
L 241.444778 378.781288 
L 245.637115 358.163417 
L 249.829452 337.545545 
L 254.021788 316.927674 
L 258.214125 296.309802 
L 262.406461 275.69193 
L 266.598798 255.07406 
L 270.791134 234.456195 
L 274.983471 213.838348 
L 279.175808 193.245661 
L 283.368144 173.165925 
L 287.560481 154.682387 
L 291.752817 138.753648 
L 295.945154 125.633172 
L 300.137491 115.324236 
L 304.329827 107.826838 
L 308.522164 103.137703 
L 312.7145 101.003368 
L 316.906837 100.465232 
L 321.099174 100.440045 
L 325.29151 100.440018 
L 329.483847 100.440011 
L 333.676183 100.440008 
L 337.86852 100.440006 
L 342.060856 100.440005 
L 346.253193 100.440004 
L 350.44553 100.440004 
L 354.637866 100.440003 
L 358.830203 100.440002 
L 363.022539 100.440002 
L 367.214876 100.440001 
L 371.407213 100.440001 
L 375.599549 100.44 
L 379.791886 100.44 
L 383.984222 100.44 
L 388.176559 100.44 
L 392.368896 100.44 
L 396.561232 100.44 
L 400.753569 100.44 
L 404.945905 100.44 
L 409.138242 100.440001 
L 413.330579 100.440001 
L 417.522915 100.440002 
L 421.715252 100.440002 
L 425.907588 100.440003 
L 430.099925 100.440004 
L 434.292261 100.440004 
L 438.484598 100.440005 
L 442.676935 100.440006 
L 446.869271 100.440008 
L 451.061608 100.440011 
L 455.253944 100.440018 
L 459.446281 100.440045 
L 463.638618 100.465232 
L 467.830954 101.003368 
L 472.023291 103.137703 
L 476.215627 107.826838 
L 480.407964 115.324236 
L 484.600301 125.633172 
L 488.792637 138.753648 
L 492.984974 154.682387 
L 497.17731 173.165925 
L 501.369647 193.245661 
L 505.561983 213.838348 
L 509.75432 234.456195 
L 513.946657 255.07406 
L 518.138993 275.69193 
L 522.33133 296.309802 
L 526.523666 316.927674 
L 530.716003 337.545545 
L 534.90834 358.163417 
L 539.100676 378.781288 
L 543.293013 399.399158 
L 547.485349 420.017024 
L 551.677686 440.634869 
L 555.870023 461.227556 
L 560.062359 481.307292 
L 564.254696 499.790829 
L 568.447032 515.719567 
L 572.639369 528.840042 
L 576.831705 539.148978 
L 581.024042 546.646375 
L 585.216379 551.335508 
L 589.408715 553.46984 
L 593.601052 554.007969 
L 597.793388 554.033129 
" clip-path="url(#p558eb6e539)" style="fill: none; stroke: #365c8d; stroke-width: 1.5; stroke-linecap: square"/>
   </g>
   <g id="line2d_16">
    <path d="M 182.752066 554.033175 
L 186.944403 554.033175 
L 191.136739 554.033175 
L 195.329076 554.033154 
L 199.521412 554.03281 
L 203.713749 554.030345 
L 207.906086 554.019683 
L 212.098422 553.986585 
L 216.290759 553.904416 
L 220.483095 553.729913 
L 224.675432 553.399447 
L 228.867769 552.827675 
L 233.060105 551.910722 
L 237.252442 550.533173 
L 241.444778 548.57642 
L 245.637115 545.927171 
L 249.829452 542.485632 
L 254.021788 538.171785 
L 258.214125 532.927358 
L 262.406461 526.713636 
L 266.598798 519.507479 
L 270.791134 511.297082 
L 274.983471 502.077778 
L 279.175808 491.848338 
L 283.368144 480.608593 
L 287.560481 468.358534 
L 291.752817 455.09816 
L 295.945154 440.827476 
L 300.137491 425.546615 
L 304.329827 409.257092 
L 308.522164 391.966554 
L 312.7145 373.698182 
L 316.906837 354.502795 
L 321.099174 334.471592 
L 325.29151 313.748727 
L 329.483847 292.541451 
L 333.676183 271.121158 
L 337.86852 249.810364 
L 342.060856 228.960099 
L 346.253193 208.924589 
L 350.44553 190.035789 
L 354.637866 172.579609 
L 358.830203 156.779769 
L 363.022539 142.795458 
L 367.214876 130.729963 
L 371.407213 120.642997 
L 375.599549 112.563469 
L 379.791886 106.501875 
L 383.984222 102.460628 
L 388.176559 100.44 
L 392.368896 100.44 
L 396.561232 102.460628 
L 400.753569 106.501875 
L 404.945905 112.563469 
L 409.138242 120.642997 
L 413.330579 130.729963 
L 417.522915 142.795458 
L 421.715252 156.779769 
L 425.907588 172.579609 
L 430.099925 190.035789 
L 434.292261 208.924589 
L 438.484598 228.960099 
L 442.676935 249.810364 
L 446.869271 271.121158 
L 451.061608 292.541451 
L 455.253944 313.748727 
L 459.446281 334.471592 
L 463.638618 354.502795 
L 467.830954 373.698182 
L 472.023291 391.966554 
L 476.215627 409.257092 
L 480.407964 425.546615 
L 484.600301 440.827476 
L 488.792637 455.09816 
L 492.984974 468.358534 
L 497.17731 480.608593 
L 501.369647 491.848338 
L 505.561983 502.077778 
L 509.75432 511.297082 
L 513.946657 519.507479 
L 518.138993 526.713636 
L 522.33133 532.927358 
L 526.523666 538.171785 
L 530.716003 542.485632 
L 534.90834 545.927171 
L 539.100676 548.57642 
L 543.293013 550.533173 
L 547.485349 551.910722 
L 551.677686 552.827675 
L 555.870023 553.399447 
L 560.062359 553.729913 
L 564.254696 553.904416 
L 568.447032 553.986585 
L 572.639369 554.019683 
L 576.831705 554.030345 
L 581.024042 554.03281 
L 585.216379 554.033154 
L 589.408715 554.033175 
L 593.601052 554.033175 
L 597.793388 554.033175 
" clip-path="url(#p558eb6e539)" style="fill: none; stroke: #277f8e; stroke-width: 1.5; stroke-linecap: square"/>
   </g>
   <g id="line2d_17">
    <path d="M 182.752066 554.033175 
L 186.944403 554.033175 
L 191.136739 554.033163 
L 195.329076 554.033 
L 199.521412 554.031957 
L 203.713749 554.027739 
L 207.906086 554.015025 
L 212.098422 553.983804 
L 216.290759 553.917708 
L 220.483095 553.792601 
L 224.675432 553.575649 
L 228.867769 553.224907 
L 233.060105 552.689237 
L 237.252442 551.908439 
L 241.444778 550.813756 
L 245.637115 549.328914 
L 249.829452 547.371602 
L 254.021788 544.855157 
L 258.214125 541.690213 
L 262.406461 537.78607 
L 266.598798 533.051575 
L 270.791134 527.395488 
L 274.983471 520.726647 
L 279.175808 512.954624 
L 283.368144 503.991955 
L 287.560481 493.75849 
L 291.752817 482.187468 
L 295.945154 469.232257 
L 300.137491 454.872897 
L 304.329827 439.121417 
L 308.522164 422.025119 
L 312.7145 403.667889 
L 316.906837 384.170359 
L 321.099174 363.689155 
L 325.29151 342.414469 
L 329.483847 320.565501 
L 333.676183 298.38427 
L 337.86852 276.128853 
L 342.060856 254.066922 
L 346.253193 232.470597 
L 350.44553 211.613383 
L 354.637866 191.769001 
L 358.830203 173.210978 
L 363.022539 156.2113 
L 367.214876 141.036467 
L 371.407213 127.940336 
L 375.599549 117.154702 
L 379.791886 108.879129 
L 383.984222 103.271385 
L 388.176559 100.44 
L 392.368896 100.44 
L 396.561232 103.271385 
L 400.753569 108.879129 
L 404.945905 117.154702 
L 409.138242 127.940336 
L 413.330579 141.036467 
L 417.522915 156.2113 
L 421.715252 173.210978 
L 425.907588 191.769001 
L 430.099925 211.613383 
L 434.292261 232.470597 
L 438.484598 254.066922 
L 442.676935 276.128853 
L 446.869271 298.38427 
L 451.061608 320.565501 
L 455.253944 342.414469 
L 459.446281 363.689155 
L 463.638618 384.170359 
L 467.830954 403.667889 
L 472.023291 422.025119 
L 476.215627 439.121417 
L 480.407964 454.872897 
L 484.600301 469.232257 
L 488.792637 482.187468 
L 492.984974 493.75849 
L 497.17731 503.991955 
L 501.369647 512.954624 
L 505.561983 520.726647 
L 509.75432 527.395488 
L 513.946657 533.051575 
L 518.138993 537.78607 
L 522.33133 541.690213 
L 526.523666 544.855157 
L 530.716003 547.371602 
L 534.90834 549.328914 
L 539.100676 550.813756 
L 543.293013 551.908439 
L 547.485349 552.689237 
L 551.677686 553.224907 
L 555.870023 553.575649 
L 560.062359 553.792601 
L 564.254696 553.917708 
L 568.447032 553.983804 
L 572.639369 554.015025 
L 576.831705 554.027739 
L 581.024042 554.031957 
L 585.216379 554.033 
L 589.408715 554.033163 
L 593.601052 554.033175 
L 597.793388 554.033175 
" clip-path="url(#p558eb6e539)" style="fill: none; stroke: #1fa187; stroke-width: 1.5; stroke-linecap: square"/>
   </g>
   <g id="line2d_18">
    <path d="M 182.752066 554.033175 
L 186.944403 554.033175 
L 191.136739 554.033175 
L 195.329076 554.033175 
L 199.521412 554.033175 
L 203.713749 554.033175 
L 207.906086 554.033175 
L 212.098422 554.033174 
L 216.290759 554.033161 
L 220.483095 554.033088 
L 224.675432 554.032764 
L 228.867769 554.031592 
L 233.060105 554.028016 
L 237.252442 554.018498 
L 241.444778 553.995904 
L 245.637115 553.94719 
L 249.829452 553.850445 
L 254.021788 553.671391 
L 258.214125 553.359658 
L 262.406461 552.845179 
L 266.598798 552.03524 
L 270.791134 550.81272 
L 274.983471 549.036031 
L 279.175808 546.541079 
L 283.368144 543.145282 
L 287.560481 538.653402 
L 291.752817 532.86475 
L 295.945154 525.581287 
L 300.137491 516.616193 
L 304.329827 505.802657 
L 308.522164 493.002736 
L 312.7145 478.116233 
L 316.906837 461.089563 
L 321.099174 441.924548 
L 325.29151 420.686956 
L 329.483847 397.514323 
L 333.676183 372.622263 
L 337.86852 346.308085 
L 342.060856 318.950438 
L 346.253193 291.003883 
L 350.44553 262.987931 
L 354.637866 235.470869 
L 358.830203 209.049438 
L 363.022539 184.325924 
L 367.214876 161.884437 
L 371.407213 142.268082 
L 375.599549 125.958537 
L 379.791886 113.359155 
L 383.984222 104.782177 
L 388.176559 100.44 
L 392.368896 100.44 
L 396.561232 104.782177 
L 400.753569 113.359155 
L 404.945905 125.958537 
L 409.138242 142.268082 
L 413.330579 161.884437 
L 417.522915 184.325924 
L 421.715252 209.049438 
L 425.907588 235.470869 
L 430.099925 262.987931 
L 434.292261 291.003883 
L 438.484598 318.950438 
L 442.676935 346.308085 
L 446.869271 372.622263 
L 451.061608 397.514323 
L 455.253944 420.686956 
L 459.446281 441.924548 
L 463.638618 461.089563 
L 467.830954 478.116233 
L 472.023291 493.002736 
L 476.215627 505.802657 
L 480.407964 516.616193 
L 484.600301 525.581287 
L 488.792637 532.86475 
L 492.984974 538.653402 
L 497.17731 543.145282 
L 501.369647 546.541079 
L 505.561983 549.036031 
L 509.75432 550.81272 
L 513.946657 552.03524 
L 518.138993 552.845179 
L 522.33133 553.359658 
L 526.523666 553.671391 
L 530.716003 553.850445 
L 534.90834 553.94719 
L 539.100676 553.995904 
L 543.293013 554.018498 
L 547.485349 554.028016 
L 551.677686 554.031592 
L 555.870023 554.032764 
L 560.062359 554.033088 
L 564.254696 554.033161 
L 568.447032 554.033174 
L 572.639369 554.033175 
L 576.831705 554.033175 
L 581.024042 554.033175 
L 585.216379 554.033175 
L 589.408715 554.033175 
L 593.601052 554.033175 
L 597.793388 554.033175 
" clip-path="url(#p558eb6e539)" style="fill: none; stroke: #4ac16d; stroke-width: 1.5; stroke-linecap: square"/>
   </g>
   <g id="line2d_19">
    <path d="M 182.752066 554.033175 
L 186.944403 554.033174 
L 191.136739 554.032936 
L 195.329076 554.028706 
L 199.521412 554.003259 
L 203.713749 553.915339 
L 207.906086 553.695763 
L 212.098422 553.249654 
L 216.290759 552.465673 
L 220.483095 551.227056 
L 224.675432 549.416569 
L 228.867769 546.919077 
L 233.060105 543.629961 
L 237.252442 539.466493 
L 241.444778 534.373531 
L 245.637115 528.322793 
L 249.829452 521.305324 
L 254.021788 513.319957 
L 258.214125 504.366691 
L 262.406461 494.446694 
L 266.598798 483.568921 
L 270.791134 471.761655 
L 274.983471 459.080036 
L 279.175808 445.606793 
L 283.368144 431.446545 
L 287.560481 416.714428 
L 291.752817 401.527674 
L 295.945154 386.003048 
L 300.137491 370.25189 
L 304.329827 354.369075 
L 308.522164 338.423787 
L 312.7145 322.457283 
L 316.906837 306.486787 
L 321.099174 290.516053 
L 325.29151 274.54532 
L 329.483847 258.575061 
L 333.676183 242.612788 
L 337.86852 226.692947 
L 342.060856 210.898051 
L 346.253193 195.366469 
L 350.44553 180.287952 
L 354.637866 165.88518 
L 358.830203 152.39168 
L 363.022539 140.041918 
L 367.214876 129.066168 
L 371.407213 119.673665 
L 375.599549 112.029866 
L 379.791886 106.245056 
L 383.984222 102.375796 
L 388.176559 100.44 
L 392.368896 100.44 
L 396.561232 102.375796 
L 400.753569 106.245056 
L 404.945905 112.029866 
L 409.138242 119.673665 
L 413.330579 129.066168 
L 417.522915 140.041918 
L 421.715252 152.39168 
L 425.907588 165.88518 
L 430.099925 180.287952 
L 434.292261 195.366469 
L 438.484598 210.898051 
L 442.676935 226.692947 
L 446.869271 242.612788 
L 451.061608 258.575061 
L 455.253944 274.54532 
L 459.446281 290.516053 
L 463.638618 306.486787 
L 467.830954 322.457283 
L 472.023291 338.423787 
L 476.215627 354.369075 
L 480.407964 370.25189 
L 484.600301 386.003048 
L 488.792637 401.527674 
L 492.984974 416.714428 
L 497.17731 431.446545 
L 501.369647 445.606793 
L 505.561983 459.080036 
L 509.75432 471.761655 
L 513.946657 483.568921 
L 518.138993 494.446694 
L 522.33133 504.366691 
L 526.523666 513.319957 
L 530.716003 521.305324 
L 534.90834 528.322793 
L 539.100676 534.373531 
L 543.293013 539.466493 
L 547.485349 543.629961 
L 551.677686 546.919077 
L 555.870023 549.416569 
L 560.062359 551.227056 
L 564.254696 552.465673 
L 568.447032 553.249654 
L 572.639369 553.695763 
L 576.831705 553.915339 
L 581.024042 554.003259 
L 585.216379 554.028706 
L 589.408715 554.032936 
L 593.601052 554.033174 
L 597.793388 554.033175 
" clip-path="url(#p558eb6e539)" style="fill: none; stroke: #a0da39; stroke-width: 1.5; stroke-linecap: square"/>
   </g>
   <g id="line2d_20">
    <path d="M 182.752066 554.033145 
L 186.944403 554.029248 
L 191.136739 553.952286 
L 195.329076 553.612144 
L 199.521412 552.807036 
L 203.713749 551.451278 
L 207.906086 549.48239 
L 212.098422 546.723702 
L 216.290759 542.964077 
L 220.483095 538.105598 
L 224.675432 532.180906 
L 228.867769 525.351961 
L 233.060105 517.836448 
L 237.252442 509.749352 
L 241.444778 501.140152 
L 245.637115 492.155327 
L 249.829452 483.015939 
L 254.021788 473.852437 
L 258.214125 464.664821 
L 262.406461 455.322643 
L 266.598798 445.604839 
L 270.791134 435.364932 
L 274.983471 424.55344 
L 279.175808 413.055382 
L 283.368144 400.65307 
L 287.560481 387.184546 
L 291.752817 372.617167 
L 295.945154 357.048851 
L 300.137491 340.690736 
L 304.329827 323.719491 
L 308.522164 306.197596 
L 312.7145 288.210736 
L 316.906837 269.960701 
L 321.099174 251.637616 
L 325.29151 233.318428 
L 329.483847 215.145355 
L 333.676183 197.498636 
L 337.86852 180.78185 
L 342.060856 165.166362 
L 346.253193 150.777136 
L 350.44553 137.967508 
L 354.637866 127.159754 
L 358.830203 118.549709 
L 363.022539 112.072089 
L 367.214876 107.402975 
L 371.407213 104.106996 
L 375.599549 101.954186 
L 379.791886 100.845581 
L 383.984222 100.488229 
L 388.176559 100.44 
L 392.368896 100.44 
L 396.561232 100.488229 
L 400.753569 100.845581 
L 404.945905 101.954186 
L 409.138242 104.106996 
L 413.330579 107.402975 
L 417.522915 112.072089 
L 421.715252 118.549709 
L 425.907588 127.159754 
L 430.099925 137.967508 
L 434.292261 150.777136 
L 438.484598 165.166362 
L 442.676935 180.78185 
L 446.869271 197.498636 
L 451.061608 215.145355 
L 455.253944 233.318428 
L 459.446281 251.637616 
L 463.638618 269.960701 
L 467.830954 288.210736 
L 472.023291 306.197596 
L 476.215627 323.719491 
L 480.407964 340.690736 
L 484.600301 357.048851 
L 488.792637 372.617167 
L 492.984974 387.184546 
L 497.17731 400.65307 
L 501.369647 413.055382 
L 505.561983 424.55344 
L 509.75432 435.364932 
L 513.946657 445.604839 
L 518.138993 455.322643 
L 522.33133 464.664821 
L 526.523666 473.852437 
L 530.716003 483.015939 
L 534.90834 492.155327 
L 539.100676 501.140152 
L 543.293013 509.749352 
L 547.485349 517.836448 
L 551.677686 525.351961 
L 555.870023 532.180906 
L 560.062359 538.105598 
L 564.254696 542.964077 
L 568.447032 546.723702 
L 572.639369 549.48239 
L 576.831705 551.451278 
L 581.024042 552.807036 
L 585.216379 553.612144 
L 589.408715 553.952286 
L 593.601052 554.029248 
L 597.793388 554.033145 
" clip-path="url(#p558eb6e539)" style="fill: none; stroke: #fde725; stroke-width: 1.5; stroke-linecap: square"/>
   </g>
   <g id="patch_3">
    <path d="M 162 576.72 
L 162 77.76 
" style="fill: none; stroke: #000000; stroke-width: 0.8; stroke-linejoin: miter; stroke-linecap: square"/>
   </g>
   <g id="patch_4">
    <path d="M 618.545455 576.72 
L 618.545455 77.76 
" style="fill: none; stroke: #000000; stroke-width: 0.8; stroke-linejoin: miter; stroke-linecap: square"/>
   </g>
   <g id="patch_5">
    <path d="M 162 576.72 
L 618.545455 576.72 
" style="fill: none; stroke: #000000; stroke-width: 0.8; stroke-linejoin: miter; stroke-linecap: square"/>
   </g>
   <g id="patch_6">
    <path d="M 162 77.76 
L 618.545455 77.76 
" style="fill: none; stroke: #000000; stroke-width: 0.8; stroke-linejoin: miter; stroke-linecap: square"/>
   </g>
   <g id="text_13">
    <!-- $\mathrm{mode}=max$ -->
    <g transform="translate(330.272727 71.76) scale(0.192 -0.192)">
     <defs>
      <path id="DejaVuSans-6d" d="M 3328 2828 
Q 3544 3216 3844 3400 
Q 4144 3584 4550 3584 
Q 5097 3584 5394 3201 
Q 5691 2819 5691 2113 
L 5691 0 
L 5113 0 
L 5113 2094 
Q 5113 2597 4934 2840 
Q 4756 3084 4391 3084 
Q 3944 3084 3684 2787 
Q 3425 2491 3425 1978 
L 3425 0 
L 2847 0 
L 2847 2094 
Q 2847 2600 2669 2842 
Q 2491 3084 2119 3084 
Q 1678 3084 1418 2786 
Q 1159 2488 1159 1978 
L 1159 0 
L 581 0 
L 581 3500 
L 1159 3500 
L 1159 2956 
Q 1356 3278 1631 3431 
Q 1906 3584 2284 3584 
Q 2666 3584 2933 3390 
Q 3200 3197 3328 2828 
z
" transform="scale(0.015625)"/>
      <path id="DejaVuSans-6f" d="M 1959 3097 
Q 1497 3097 1228 2736 
Q 959 2375 959 1747 
Q 959 1119 1226 758 
Q 1494 397 1959 397 
Q 2419 397 2687 759 
Q 2956 1122 2956 1747 
Q 2956 2369 2687 2733 
Q 2419 3097 1959 3097 
z
M 1959 3584 
Q 2709 3584 3137 3096 
Q 3566 2609 3566 1747 
Q 3566 888 3137 398 
Q 2709 -91 1959 -91 
Q 1206 -91 779 398 
Q 353 888 353 1747 
Q 353 2609 779 3096 
Q 1206 3584 1959 3584 
z
" transform="scale(0.015625)"/>
      <path id="DejaVuSans-64" d="M 2906 2969 
L 2906 4863 
L 3481 4863 
L 3481 0 
L 2906 0 
L 2906 525 
Q 2725 213 2448 61 
Q 2172 -91 1784 -91 
Q 1150 -91 751 415 
Q 353 922 353 1747 
Q 353 2572 751 3078 
Q 1150 3584 1784 3584 
Q 2172 3584 2448 3432 
Q 2725 3281 2906 2969 
z
M 947 1747 
Q 947 1113 1208 752 
Q 1469 391 1925 391 
Q 2381 391 2643 752 
Q 2906 1113 2906 1747 
Q 2906 2381 2643 2742 
Q 2381 3103 1925 3103 
Q 1469 3103 1208 2742 
Q 947 2381 947 1747 
z
" transform="scale(0.015625)"/>
      <path id="DejaVuSans-65" d="M 3597 1894 
L 3597 1613 
L 953 1613 
Q 991 1019 1311 708 
Q 1631 397 2203 397 
Q 2534 397 2845 478 
Q 3156 559 3463 722 
L 3463 178 
Q 3153 47 2828 -22 
Q 2503 -91 2169 -91 
Q 1331 -91 842 396 
Q 353 884 353 1716 
Q 353 2575 817 3079 
Q 1281 3584 2069 3584 
Q 2775 3584 3186 3129 
Q 3597 2675 3597 1894 
z
M 3022 2063 
Q 3016 2534 2758 2815 
Q 2500 3097 2075 3097 
Q 1594 3097 1305 2825 
Q 1016 2553 972 2059 
L 3022 2063 
z
" transform="scale(0.015625)"/>
      <path id="DejaVuSans-3d" d="M 678 2906 
L 4684 2906 
L 4684 2381 
L 678 2381 
L 678 2906 
z
M 678 1631 
L 4684 1631 
L 4684 1100 
L 678 1100 
L 678 1631 
z
" transform="scale(0.015625)"/>
      <path id="DejaVuSans-Oblique-6d" d="M 5747 2113 
L 5338 0 
L 4763 0 
L 5166 2094 
Q 5191 2228 5203 2325 
Q 5216 2422 5216 2491 
Q 5216 2772 5059 2928 
Q 4903 3084 4622 3084 
Q 4203 3084 3875 2770 
Q 3547 2456 3450 1953 
L 3066 0 
L 2491 0 
L 2900 2094 
Q 2925 2209 2937 2307 
Q 2950 2406 2950 2484 
Q 2950 2769 2794 2926 
Q 2638 3084 2363 3084 
Q 1938 3084 1609 2770 
Q 1281 2456 1184 1953 
L 800 0 
L 225 0 
L 909 3500 
L 1484 3500 
L 1375 2956 
Q 1609 3263 1923 3423 
Q 2238 3584 2597 3584 
Q 2978 3584 3223 3384 
Q 3469 3184 3519 2828 
Q 3781 3197 4126 3390 
Q 4472 3584 4856 3584 
Q 5306 3584 5551 3325 
Q 5797 3066 5797 2591 
Q 5797 2488 5784 2364 
Q 5772 2241 5747 2113 
z
" transform="scale(0.015625)"/>
      <path id="DejaVuSans-Oblique-61" d="M 3438 1997 
L 3047 0 
L 2472 0 
L 2578 531 
Q 2325 219 2001 64 
Q 1678 -91 1281 -91 
Q 834 -91 548 182 
Q 263 456 263 884 
Q 263 1497 752 1853 
Q 1241 2209 2100 2209 
L 2900 2209 
L 2931 2363 
Q 2938 2388 2941 2417 
Q 2944 2447 2944 2509 
Q 2944 2788 2717 2942 
Q 2491 3097 2081 3097 
Q 1800 3097 1504 3025 
Q 1209 2953 897 2809 
L 997 3341 
Q 1322 3463 1633 3523 
Q 1944 3584 2234 3584 
Q 2853 3584 3176 3315 
Q 3500 3047 3500 2534 
Q 3500 2431 3484 2292 
Q 3469 2153 3438 1997 
z
M 2816 1759 
L 2241 1759 
Q 1534 1759 1195 1570 
Q 856 1381 856 984 
Q 856 709 1029 553 
Q 1203 397 1509 397 
Q 1978 397 2328 733 
Q 2678 1069 2791 1631 
L 2816 1759 
z
" transform="scale(0.015625)"/>
      <path id="DejaVuSans-Oblique-78" d="M 3841 3500 
L 2234 1784 
L 3219 0 
L 2559 0 
L 1819 1388 
L 531 0 
L -166 0 
L 1556 1844 
L 641 3500 
L 1300 3500 
L 1972 2234 
L 3144 3500 
L 3841 3500 
z
" transform="scale(0.015625)"/>
     </defs>
     <use xlink:href="#DejaVuSans-6d" transform="translate(0 0.015625)"/>
     <use xlink:href="#DejaVuSans-6f" transform="translate(97.412109 0.015625)"/>
     <use xlink:href="#DejaVuSans-64" transform="translate(158.59375 0.015625)"/>
     <use xlink:href="#DejaVuSans-65" transform="translate(222.070312 0.015625)"/>
     <use xlink:href="#DejaVuSans-3d" transform="translate(303.076172 0.015625)"/>
     <use xlink:href="#DejaVuSans-Oblique-6d" transform="translate(406.347656 0.015625)"/>
     <use xlink:href="#DejaVuSans-Oblique-61" transform="translate(503.759766 0.015625)"/>
     <use xlink:href="#DejaVuSans-Oblique-78" transform="translate(565.039062 0.015625)"/>
    </g>
   </g>
   <g id="legend_1">
    <g id="patch_7">
     <path d="M 344.192727 568.72 
L 436.352727 568.72 
Q 439.552727 568.72 439.552727 565.52 
L 439.552727 377.08 
Q 439.552727 373.88 436.352727 373.88 
L 344.192727 373.88 
Q 340.992727 373.88 340.992727 377.08 
L 340.992727 565.52 
Q 340.992727 568.72 344.192727 568.72 
z
" style="fill: #ffffff; opacity: 0.8; stroke: #cccccc; stroke-linejoin: miter"/>
    </g>
    <g id="line2d_21">
     <path d="M 347.392727 386.8375 
L 363.392727 386.8375 
L 379.392727 386.8375 
" style="fill: none; stroke: #440154; stroke-width: 1.5; stroke-linecap: square"/>
    </g>
    <g id="text_14">
     <!-- $\mathrm{up}$ -->
     <g transform="translate(392.192727 392.4375) scale(0.16 -0.16)">
      <defs>
       <path id="DejaVuSans-75" d="M 544 1381 
L 544 3500 
L 1119 3500 
L 1119 1403 
Q 1119 906 1312 657 
Q 1506 409 1894 409 
Q 2359 409 2629 706 
Q 2900 1003 2900 1516 
L 2900 3500 
L 3475 3500 
L 3475 0 
L 2900 0 
L 2900 538 
Q 2691 219 2414 64 
Q 2138 -91 1772 -91 
Q 1169 -91 856 284 
Q 544 659 544 1381 
z
M 1991 3584 
L 1991 3584 
z
" transform="scale(0.015625)"/>
       <path id="DejaVuSans-70" d="M 1159 525 
L 1159 -1331 
L 581 -1331 
L 581 3500 
L 1159 3500 
L 1159 2969 
Q 1341 3281 1617 3432 
Q 1894 3584 2278 3584 
Q 2916 3584 3314 3078 
Q 3713 2572 3713 1747 
Q 3713 922 3314 415 
Q 2916 -91 2278 -91 
Q 1894 -91 1617 61 
Q 1341 213 1159 525 
z
M 3116 1747 
Q 3116 2381 2855 2742 
Q 2594 3103 2138 3103 
Q 1681 3103 1420 2742 
Q 1159 2381 1159 1747 
Q 1159 1113 1420 752 
Q 1681 391 2138 391 
Q 2594 391 2855 752 
Q 3116 1113 3116 1747 
z
" transform="scale(0.015625)"/>
      </defs>
      <use xlink:href="#DejaVuSans-75"/>
      <use xlink:href="#DejaVuSans-70" transform="translate(63.378906 0)"/>
     </g>
    </g>
    <g id="line2d_22">
     <path d="M 347.392727 410.355 
L 363.392727 410.355 
L 379.392727 410.355 
" style="fill: none; stroke: #46327e; stroke-width: 1.5; stroke-linecap: square"/>
    </g>
    <g id="text_15">
     <!-- $\mathrm{up}_3$ -->
     <g transform="translate(392.192727 415.955) scale(0.16 -0.16)">
      <defs>
       <path id="DejaVuSans-33" d="M 2597 2516 
Q 3050 2419 3304 2112 
Q 3559 1806 3559 1356 
Q 3559 666 3084 287 
Q 2609 -91 1734 -91 
Q 1441 -91 1130 -33 
Q 819 25 488 141 
L 488 750 
Q 750 597 1062 519 
Q 1375 441 1716 441 
Q 2309 441 2620 675 
Q 2931 909 2931 1356 
Q 2931 1769 2642 2001 
Q 2353 2234 1838 2234 
L 1294 2234 
L 1294 2753 
L 1863 2753 
Q 2328 2753 2575 2939 
Q 2822 3125 2822 3475 
Q 2822 3834 2567 4026 
Q 2313 4219 1838 4219 
Q 1578 4219 1281 4162 
Q 984 4106 628 3988 
L 628 4550 
Q 988 4650 1302 4700 
Q 1616 4750 1894 4750 
Q 2613 4750 3031 4423 
Q 3450 4097 3450 3541 
Q 3450 3153 3228 2886 
Q 3006 2619 2597 2516 
z
" transform="scale(0.015625)"/>
      </defs>
      <use xlink:href="#DejaVuSans-75"/>
      <use xlink:href="#DejaVuSans-70" transform="translate(63.378906 0)"/>
      <use xlink:href="#DejaVuSans-33" transform="translate(127.8125 -16.40625) scale(0.7)"/>
     </g>
    </g>
    <g id="line2d_23">
     <path d="M 347.392727 433.8725 
L 363.392727 433.8725 
L 379.392727 433.8725 
" style="fill: none; stroke: #365c8d; stroke-width: 1.5; stroke-linecap: square"/>
    </g>
    <g id="text_16">
     <!-- $\mathrm{h}_3$ -->
     <g transform="translate(392.192727 439.4725) scale(0.16 -0.16)">
      <defs>
       <path id="DejaVuSans-68" d="M 3513 2113 
L 3513 0 
L 2938 0 
L 2938 2094 
Q 2938 2591 2744 2837 
Q 2550 3084 2163 3084 
Q 1697 3084 1428 2787 
Q 1159 2491 1159 1978 
L 1159 0 
L 581 0 
L 581 4863 
L 1159 4863 
L 1159 2956 
Q 1366 3272 1645 3428 
Q 1925 3584 2291 3584 
Q 2894 3584 3203 3211 
Q 3513 2838 3513 2113 
z
" transform="scale(0.015625)"/>
      </defs>
      <use xlink:href="#DejaVuSans-68" transform="translate(0 0.015625)"/>
      <use xlink:href="#DejaVuSans-33" transform="translate(64.335938 -16.390625) scale(0.7)"/>
     </g>
    </g>
    <g id="line2d_24">
     <path d="M 347.392727 457.36 
L 363.392727 457.36 
L 379.392727 457.36 
" style="fill: none; stroke: #277f8e; stroke-width: 1.5; stroke-linecap: square"/>
    </g>
    <g id="text_17">
     <!-- $\mathrm{\xi}_3$ -->
     <g transform="translate(392.192727 462.96) scale(0.16 -0.16)">
      <defs>
       <path id="DejaVuSans-3be" d="M 2281 397 
Q 2694 394 2941 159 
Q 3203 -88 3203 -463 
Q 3203 -822 2972 -1072 
Q 2722 -1344 2213 -1344 
Q 2213 -1109 2213 -872 
Q 2428 -888 2559 -750 
Q 2659 -641 2659 -525 
Q 2659 -359 2559 -222 
Q 2463 -91 2281 -91 
Q 334 -91 334 1275 
Q 334 2213 1375 2488 
Q 500 2600 500 3413 
Q 500 4028 1188 4284 
L 538 4284 
L 538 4863 
L 3003 4863 
L 3003 4284 
Q 1038 4284 1038 3375 
Q 1038 2778 2688 2750 
L 2688 2219 
Q 906 2288 913 1275 
Q 916 428 2281 397 
z
" transform="scale(0.015625)"/>
      </defs>
      <use xlink:href="#DejaVuSans-3be" transform="translate(0 0.015625)"/>
      <use xlink:href="#DejaVuSans-33" transform="translate(56.71875 -16.390625) scale(0.7)"/>
     </g>
    </g>
    <g id="line2d_25">
     <path d="M 347.392727 480.88 
L 363.392727 480.88 
L 379.392727 480.88 
" style="fill: none; stroke: #1fa187; stroke-width: 1.5; stroke-linecap: square"/>
    </g>
    <g id="text_18">
     <!-- $\mathrm{fup}_2$ -->
     <g transform="translate(392.192727 486.48) scale(0.16 -0.16)">
      <defs>
       <path id="DejaVuSans-66" d="M 2375 4863 
L 2375 4384 
L 1825 4384 
Q 1516 4384 1395 4259 
Q 1275 4134 1275 3809 
L 1275 3500 
L 2222 3500 
L 2222 3053 
L 1275 3053 
L 1275 0 
L 697 0 
L 697 3053 
L 147 3053 
L 147 3500 
L 697 3500 
L 697 3744 
Q 697 4328 969 4595 
Q 1241 4863 1831 4863 
L 2375 4863 
z
" transform="scale(0.015625)"/>
      </defs>
      <use xlink:href="#DejaVuSans-66" transform="translate(0 0.015625)"/>
      <use xlink:href="#DejaVuSans-75" transform="translate(35.205078 0.015625)"/>
      <use xlink:href="#DejaVuSans-70" transform="translate(98.583984 0.015625)"/>
      <use xlink:href="#DejaVuSans-32" transform="translate(163.017578 -16.390625) scale(0.7)"/>
     </g>
    </g>
    <g id="line2d_26">
     <path d="M 347.392727 504.4 
L 363.392727 504.4 
L 379.392727 504.4 
" style="fill: none; stroke: #4ac16d; stroke-width: 1.5; stroke-linecap: square"/>
    </g>
    <g id="text_19">
     <!-- $\mathrm{ch}_{2,3}$ -->
     <g transform="translate(392.192727 510) scale(0.16 -0.16)">
      <defs>
       <path id="DejaVuSans-63" d="M 3122 3366 
L 3122 2828 
Q 2878 2963 2633 3030 
Q 2388 3097 2138 3097 
Q 1578 3097 1268 2742 
Q 959 2388 959 1747 
Q 959 1106 1268 751 
Q 1578 397 2138 397 
Q 2388 397 2633 464 
Q 2878 531 3122 666 
L 3122 134 
Q 2881 22 2623 -34 
Q 2366 -91 2075 -91 
Q 1284 -91 818 406 
Q 353 903 353 1747 
Q 353 2603 823 3093 
Q 1294 3584 2113 3584 
Q 2378 3584 2631 3529 
Q 2884 3475 3122 3366 
z
" transform="scale(0.015625)"/>
       <path id="DejaVuSans-2c" d="M 750 794 
L 1409 794 
L 1409 256 
L 897 -744 
L 494 -744 
L 750 256 
L 750 794 
z
" transform="scale(0.015625)"/>
      </defs>
      <use xlink:href="#DejaVuSans-63" transform="translate(0 0.015625)"/>
      <use xlink:href="#DejaVuSans-68" transform="translate(54.980469 0.015625)"/>
      <use xlink:href="#DejaVuSans-32" transform="translate(119.316406 -16.390625) scale(0.7)"/>
      <use xlink:href="#DejaVuSans-2c" transform="translate(163.852539 -16.390625) scale(0.7)"/>
      <use xlink:href="#DejaVuSans-33" transform="translate(199.741211 -16.390625) scale(0.7)"/>
     </g>
    </g>
    <g id="line2d_27">
     <path d="M 347.392727 528.56 
L 363.392727 528.56 
L 379.392727 528.56 
" style="fill: none; stroke: #a0da39; stroke-width: 1.5; stroke-linecap: square"/>
    </g>
    <g id="text_20">
     <!-- $\mathrm{fip}_{2,1}$ -->
     <g transform="translate(392.192727 534.16) scale(0.16 -0.16)">
      <defs>
       <path id="DejaVuSans-69" d="M 603 3500 
L 1178 3500 
L 1178 0 
L 603 0 
L 603 3500 
z
M 603 4863 
L 1178 4863 
L 1178 4134 
L 603 4134 
L 603 4863 
z
" transform="scale(0.015625)"/>
      </defs>
      <use xlink:href="#DejaVuSans-66" transform="translate(0 0.015625)"/>
      <use xlink:href="#DejaVuSans-69" transform="translate(35.205078 0.015625)"/>
      <use xlink:href="#DejaVuSans-70" transform="translate(62.988281 0.015625)"/>
      <use xlink:href="#DejaVuSans-32" transform="translate(127.421875 -16.390625) scale(0.7)"/>
      <use xlink:href="#DejaVuSans-2c" transform="translate(171.958008 -16.390625) scale(0.7)"/>
      <use xlink:href="#DejaVuSans-31" transform="translate(207.84668 -16.390625) scale(0.7)"/>
     </g>
    </g>
    <g id="line2d_28">
     <path d="M 347.392727 552.72 
L 363.392727 552.72 
L 379.392727 552.72 
" style="fill: none; stroke: #fde725; stroke-width: 1.5; stroke-linecap: square"/>
    </g>
    <g id="text_21">
     <!-- $\mathrm{fp}_{2,1}$ -->
     <g transform="translate(392.192727 558.32) scale(0.16 -0.16)">
      <use xlink:href="#DejaVuSans-66" transform="translate(0 0.015625)"/>
      <use xlink:href="#DejaVuSans-70" transform="translate(35.205078 0.015625)"/>
      <use xlink:href="#DejaVuSans-32" transform="translate(99.638672 -16.390625) scale(0.7)"/>
      <use xlink:href="#DejaVuSans-2c" transform="translate(144.174805 -16.390625) scale(0.7)"/>
      <use xlink:href="#DejaVuSans-31" transform="translate(180.063477 -16.390625) scale(0.7)"/>
     </g>
    </g>
   </g>
  </g>
  <g id="axes_2">
   <g id="patch_8">
    <path d="M 709.854545 576.72 
L 1166.4 576.72 
L 1166.4 77.76 
L 709.854545 77.76 
z
" style="fill: #ffffff"/>
   </g>
   <g id="matplotlib.axis_3">
    <g id="xtick_7">
     <g id="line2d_29">
      <g>
       <use xlink:href="#m2b61afd0f0" x="730.606612" y="576.72" style="stroke: #000000; stroke-width: 0.8"/>
      </g>
     </g>
     <g id="text_22">
      <!-- 0 -->
      <g transform="translate(725.516612 595.8775) scale(0.16 -0.16)">
       <use xlink:href="#DejaVuSans-30"/>
      </g>
     </g>
    </g>
    <g id="xtick_8">
     <g id="line2d_30">
      <g>
       <use xlink:href="#m2b61afd0f0" x="814.453343" y="576.72" style="stroke: #000000; stroke-width: 0.8"/>
      </g>
     </g>
     <g id="text_23">
      <!-- 20 -->
      <g transform="translate(804.273343 595.8775) scale(0.16 -0.16)">
       <use xlink:href="#DejaVuSans-32"/>
       <use xlink:href="#DejaVuSans-30" x="63.623047"/>
      </g>
     </g>
    </g>
    <g id="xtick_9">
     <g id="line2d_31">
      <g>
       <use xlink:href="#m2b61afd0f0" x="898.300075" y="576.72" style="stroke: #000000; stroke-width: 0.8"/>
      </g>
     </g>
     <g id="text_24">
      <!-- 40 -->
      <g transform="translate(888.120075 595.8775) scale(0.16 -0.16)">
       <use xlink:href="#DejaVuSans-34"/>
       <use xlink:href="#DejaVuSans-30" x="63.623047"/>
      </g>
     </g>
    </g>
    <g id="xtick_10">
     <g id="line2d_32">
      <g>
       <use xlink:href="#m2b61afd0f0" x="982.146807" y="576.72" style="stroke: #000000; stroke-width: 0.8"/>
      </g>
     </g>
     <g id="text_25">
      <!-- 60 -->
      <g transform="translate(971.966807 595.8775) scale(0.16 -0.16)">
       <use xlink:href="#DejaVuSans-36"/>
       <use xlink:href="#DejaVuSans-30" x="63.623047"/>
      </g>
     </g>
    </g>
    <g id="xtick_11">
     <g id="line2d_33">
      <g>
       <use xlink:href="#m2b61afd0f0" x="1065.993539" y="576.72" style="stroke: #000000; stroke-width: 0.8"/>
      </g>
     </g>
     <g id="text_26">
      <!-- 80 -->
      <g transform="translate(1055.813539 595.8775) scale(0.16 -0.16)">
       <use xlink:href="#DejaVuSans-38"/>
       <use xlink:href="#DejaVuSans-30" x="63.623047"/>
      </g>
     </g>
    </g>
    <g id="xtick_12">
     <g id="line2d_34">
      <g>
       <use xlink:href="#m2b61afd0f0" x="1149.84027" y="576.72" style="stroke: #000000; stroke-width: 0.8"/>
      </g>
     </g>
     <g id="text_27">
      <!-- 100 -->
      <g transform="translate(1134.57027 595.8775) scale(0.16 -0.16)">
       <use xlink:href="#DejaVuSans-31"/>
       <use xlink:href="#DejaVuSans-30" x="63.623047"/>
       <use xlink:href="#DejaVuSans-30" x="127.246094"/>
      </g>
     </g>
    </g>
   </g>
   <g id="matplotlib.axis_4">
    <g id="ytick_7">
     <g id="line2d_35">
      <g>
       <use xlink:href="#m2bc7d09e25" x="709.854545" y="554.036596" style="stroke: #000000; stroke-width: 0.8"/>
      </g>
     </g>
     <g id="text_28">
      <!-- 0.0 -->
      <g transform="translate(677.409545 560.115346) scale(0.16 -0.16)">
       <use xlink:href="#DejaVuSans-30"/>
       <use xlink:href="#DejaVuSans-2e" x="63.623047"/>
       <use xlink:href="#DejaVuSans-30" x="95.410156"/>
      </g>
     </g>
    </g>
    <g id="ytick_8">
     <g id="line2d_36">
      <g>
       <use xlink:href="#m2bc7d09e25" x="709.854545" y="497.463318" style="stroke: #000000; stroke-width: 0.8"/>
      </g>
     </g>
     <g id="text_29">
      <!-- 0.2 -->
      <g transform="translate(677.409545 503.542068) scale(0.16 -0.16)">
       <use xlink:href="#DejaVuSans-30"/>
       <use xlink:href="#DejaVuSans-2e" x="63.623047"/>
       <use xlink:href="#DejaVuSans-32" x="95.410156"/>
      </g>
     </g>
    </g>
    <g id="ytick_9">
     <g id="line2d_37">
      <g>
       <use xlink:href="#m2bc7d09e25" x="709.854545" y="440.89004" style="stroke: #000000; stroke-width: 0.8"/>
      </g>
     </g>
     <g id="text_30">
      <!-- 0.5 -->
      <g transform="translate(677.409545 446.96879) scale(0.16 -0.16)">
       <defs>
        <path id="DejaVuSans-35" d="M 691 4666 
L 3169 4666 
L 3169 4134 
L 1269 4134 
L 1269 2991 
Q 1406 3038 1543 3061 
Q 1681 3084 1819 3084 
Q 2600 3084 3056 2656 
Q 3513 2228 3513 1497 
Q 3513 744 3044 326 
Q 2575 -91 1722 -91 
Q 1428 -91 1123 -41 
Q 819 9 494 109 
L 494 744 
Q 775 591 1075 516 
Q 1375 441 1709 441 
Q 2250 441 2565 725 
Q 2881 1009 2881 1497 
Q 2881 1984 2565 2268 
Q 2250 2553 1709 2553 
Q 1456 2553 1204 2497 
Q 953 2441 691 2322 
L 691 4666 
z
" transform="scale(0.015625)"/>
       </defs>
       <use xlink:href="#DejaVuSans-30"/>
       <use xlink:href="#DejaVuSans-2e" x="63.623047"/>
       <use xlink:href="#DejaVuSans-35" x="95.410156"/>
      </g>
     </g>
    </g>
    <g id="ytick_10">
     <g id="line2d_38">
      <g>
       <use xlink:href="#m2bc7d09e25" x="709.854545" y="384.316763" style="stroke: #000000; stroke-width: 0.8"/>
      </g>
     </g>
     <g id="text_31">
      <!-- 0.8 -->
      <g transform="translate(677.409545 390.395513) scale(0.16 -0.16)">
       <use xlink:href="#DejaVuSans-30"/>
       <use xlink:href="#DejaVuSans-2e" x="63.623047"/>
       <use xlink:href="#DejaVuSans-38" x="95.410156"/>
      </g>
     </g>
    </g>
    <g id="ytick_11">
     <g id="line2d_39">
      <g>
       <use xlink:href="#m2bc7d09e25" x="709.854545" y="327.743485" style="stroke: #000000; stroke-width: 0.8"/>
      </g>
     </g>
     <g id="text_32">
      <!-- 1.0 -->
      <g transform="translate(677.409545 333.822235) scale(0.16 -0.16)">
       <use xlink:href="#DejaVuSans-31"/>
       <use xlink:href="#DejaVuSans-2e" x="63.623047"/>
       <use xlink:href="#DejaVuSans-30" x="95.410156"/>
      </g>
     </g>
    </g>
    <g id="ytick_12">
     <g id="line2d_40">
      <g>
       <use xlink:href="#m2bc7d09e25" x="709.854545" y="271.170207" style="stroke: #000000; stroke-width: 0.8"/>
      </g>
     </g>
     <g id="text_33">
      <!-- 1.2 -->
      <g transform="translate(677.409545 277.248957) scale(0.16 -0.16)">
       <use xlink:href="#DejaVuSans-31"/>
       <use xlink:href="#DejaVuSans-2e" x="63.623047"/>
       <use xlink:href="#DejaVuSans-32" x="95.410156"/>
      </g>
     </g>
    </g>
    <g id="ytick_13">
     <g id="line2d_41">
      <g>
       <use xlink:href="#m2bc7d09e25" x="709.854545" y="214.59693" style="stroke: #000000; stroke-width: 0.8"/>
      </g>
     </g>
     <g id="text_34">
      <!-- 1.5 -->
      <g transform="translate(677.409545 220.67568) scale(0.16 -0.16)">
       <use xlink:href="#DejaVuSans-31"/>
       <use xlink:href="#DejaVuSans-2e" x="63.623047"/>
       <use xlink:href="#DejaVuSans-35" x="95.410156"/>
      </g>
     </g>
    </g>
    <g id="ytick_14">
     <g id="line2d_42">
      <g>
       <use xlink:href="#m2bc7d09e25" x="709.854545" y="158.023652" style="stroke: #000000; stroke-width: 0.8"/>
      </g>
     </g>
     <g id="text_35">
      <!-- 1.8 -->
      <g transform="translate(677.409545 164.102402) scale(0.16 -0.16)">
       <use xlink:href="#DejaVuSans-31"/>
       <use xlink:href="#DejaVuSans-2e" x="63.623047"/>
       <use xlink:href="#DejaVuSans-38" x="95.410156"/>
      </g>
     </g>
    </g>
    <g id="ytick_15">
     <g id="line2d_43">
      <g>
       <use xlink:href="#m2bc7d09e25" x="709.854545" y="101.450374" style="stroke: #000000; stroke-width: 0.8"/>
      </g>
     </g>
     <g id="text_36">
      <!-- 2.0 -->
      <g transform="translate(677.409545 107.529124) scale(0.16 -0.16)">
       <use xlink:href="#DejaVuSans-32"/>
       <use xlink:href="#DejaVuSans-2e" x="63.623047"/>
       <use xlink:href="#DejaVuSans-30" x="95.410156"/>
      </g>
     </g>
    </g>
   </g>
   <g id="line2d_44">
    <path d="M 730.606612 554.036596 
L 734.798948 554.036592 
L 738.991285 554.035752 
L 743.183621 554.023755 
L 747.375958 553.962676 
L 751.568295 553.777717 
L 755.760631 553.36359 
L 759.952968 552.602415 
L 764.145304 551.375216 
L 768.337641 549.569824 
L 772.529977 547.0984 
L 776.722314 543.909429 
L 780.914651 539.984284 
L 785.106987 535.320351 
L 789.299324 529.917764 
L 793.49166 523.781373 
L 797.683997 516.936827 
L 801.876334 509.445004 
L 806.06867 501.40152 
L 810.261007 492.921587 
L 814.453343 484.124401 
L 818.64568 475.12629 
L 822.838017 466.026381 
L 827.030353 456.89024 
L 831.22269 447.747407 
L 835.415026 438.604251 
L 839.607363 429.46112 
L 843.799699 420.319857 
L 847.992036 411.196007 
L 852.184373 402.136462 
L 856.376709 393.224867 
L 860.569046 384.571417 
L 864.761382 376.294845 
L 868.953719 368.513531 
L 873.146056 361.335375 
L 877.338392 354.839664 
L 881.530729 349.068751 
L 885.723065 344.035408 
L 889.915402 339.740894 
L 894.107739 336.184691 
L 898.300075 333.35861 
L 902.492412 331.229007 
L 906.684748 329.72567 
L 910.877085 328.746237 
L 915.069421 328.173503 
L 919.261758 327.888343 
L 923.454095 327.776923 
L 927.646431 327.747399 
L 931.838768 327.743587 
L 936.031104 327.743485 
L 940.223441 327.743485 
L 944.415778 327.743587 
L 948.608114 327.747399 
L 952.800451 327.776923 
L 956.992787 327.888343 
L 961.185124 328.173503 
L 965.377461 328.746237 
L 969.569797 329.72567 
L 973.762134 331.229007 
L 977.95447 333.35861 
L 982.146807 336.184691 
L 986.339144 339.740894 
L 990.53148 344.035408 
L 994.723817 349.068751 
L 998.916153 354.839664 
L 1003.10849 361.335375 
L 1007.300826 368.513531 
L 1011.493163 376.294845 
L 1015.6855 384.571417 
L 1019.877836 393.224867 
L 1024.070173 402.136462 
L 1028.262509 411.196007 
L 1032.454846 420.319857 
L 1036.647183 429.46112 
L 1040.839519 438.604251 
L 1045.031856 447.747407 
L 1049.224192 456.89024 
L 1053.416529 466.026381 
L 1057.608866 475.12629 
L 1061.801202 484.124401 
L 1065.993539 492.921587 
L 1070.185875 501.40152 
L 1074.378212 509.445004 
L 1078.570548 516.936827 
L 1082.762885 523.781373 
L 1086.955222 529.917764 
L 1091.147558 535.320351 
L 1095.339895 539.984284 
L 1099.532231 543.909429 
L 1103.724568 547.0984 
L 1107.916905 549.569824 
L 1112.109241 551.375216 
L 1116.301578 552.602415 
L 1120.493914 553.36359 
L 1124.686251 553.777717 
L 1128.878588 553.962676 
L 1133.070924 554.023755 
L 1137.263261 554.035752 
L 1141.455597 554.036592 
L 1145.647934 554.036596 
" clip-path="url(#pfd37bf644a)" style="fill: none; stroke: #440154; stroke-width: 1.5; stroke-linecap: square"/>
   </g>
   <g id="line2d_45">
    <path d="M 730.606612 554.04 
L 734.798948 553.777524 
L 738.991285 552.024801 
L 743.183621 549.080807 
L 747.375958 545.519266 
L 751.568295 540.289799 
L 755.760631 534.194419 
L 759.952968 527.233184 
L 764.145304 518.604139 
L 768.337641 509.571109 
L 772.529977 501.722624 
L 776.722314 495.364536 
L 780.914651 489.531446 
L 785.106987 485.188603 
L 789.299324 482.036997 
L 793.49166 479.502816 
L 797.683997 478.636005 
L 801.876334 478.575191 
L 806.06867 477.708381 
L 810.261007 475.174204 
L 814.453343 472.022602 
L 818.64568 467.679767 
L 822.838017 461.846687 
L 827.030353 455.48861 
L 831.22269 447.640141 
L 835.415026 438.607132 
L 839.607363 429.978113 
L 843.799699 423.016915 
L 847.992036 416.921584 
L 852.184373 411.692188 
L 856.376709 408.130758 
L 860.569046 405.186955 
L 864.761382 403.434678 
L 868.953719 403.174396 
L 873.146056 402.914116 
L 877.338392 401.161841 
L 881.530729 398.218042 
L 885.723065 394.656618 
L 889.915402 389.42723 
L 894.107739 383.33191 
L 898.300075 376.370725 
L 902.492412 367.741725 
L 906.684748 358.708739 
L 910.877085 350.860301 
L 915.069421 344.502267 
L 919.261758 338.669245 
L 923.454095 334.326497 
L 927.646431 331.175038 
L 931.838768 328.641138 
L 936.031104 327.775186 
L 940.223441 327.775186 
L 944.415778 328.641138 
L 948.608114 331.175038 
L 952.800451 334.326497 
L 956.992787 338.669245 
L 961.185124 344.502267 
L 965.377461 350.860301 
L 969.569797 358.708739 
L 973.762134 367.741725 
L 977.95447 376.370725 
L 982.146807 383.33191 
L 986.339144 389.42723 
L 990.53148 394.656618 
L 994.723817 398.218042 
L 998.916153 401.161841 
L 1003.10849 402.914116 
L 1007.300826 403.174396 
L 1011.493163 403.434678 
L 1015.6855 405.186955 
L 1019.877836 408.130758 
L 1024.070173 411.692188 
L 1028.262509 416.921584 
L 1032.454846 423.016915 
L 1036.647183 429.978113 
L 1040.839519 438.607132 
L 1045.031856 447.640141 
L 1049.224192 455.48861 
L 1053.416529 461.846687 
L 1057.608866 467.679767 
L 1061.801202 472.022602 
L 1065.993539 475.174204 
L 1070.185875 477.708381 
L 1074.378212 478.575191 
L 1078.570548 478.636005 
L 1082.762885 479.502816 
L 1086.955222 482.036997 
L 1091.147558 485.188603 
L 1095.339895 489.531446 
L 1099.532231 495.364536 
L 1103.724568 501.722624 
L 1107.916905 509.571109 
L 1112.109241 518.604139 
L 1116.301578 527.233184 
L 1120.493914 534.194419 
L 1124.686251 540.289799 
L 1128.878588 545.519266 
L 1133.070924 549.080807 
L 1137.263261 552.024801 
L 1141.455597 553.777524 
L 1145.647934 554.04 
" clip-path="url(#pfd37bf644a)" style="fill: none; stroke: #46327e; stroke-width: 1.5; stroke-linecap: square"/>
   </g>
   <g id="line2d_46">
    <path d="M 730.606612 554.036578 
L 734.798948 554.027164 
L 738.991285 553.825814 
L 743.183621 553.027216 
L 747.375958 551.272695 
L 751.568295 548.467412 
L 755.760631 544.610143 
L 759.952968 539.700887 
L 764.145304 533.740871 
L 768.337641 526.824931 
L 772.529977 519.311746 
L 776.722314 511.606631 
L 780.914651 503.892102 
L 785.106987 496.177566 
L 789.299324 488.463029 
L 793.49166 480.748491 
L 797.683997 473.033952 
L 801.876334 465.319414 
L 806.06867 457.604876 
L 810.261007 449.890338 
L 814.453343 442.1758 
L 818.64568 434.461264 
L 822.838017 426.746735 
L 827.030353 419.04162 
L 831.22269 411.528435 
L 835.415026 404.612495 
L 839.607363 398.652478 
L 843.799699 393.743222 
L 847.992036 389.885952 
L 852.184373 387.080669 
L 856.376709 385.326147 
L 860.569046 384.527549 
L 864.761382 384.326195 
L 868.953719 384.316771 
L 873.146056 384.316761 
L 877.338392 384.316758 
L 881.530729 384.316757 
L 885.723065 384.316757 
L 889.915402 384.316756 
L 894.107739 384.316756 
L 898.300075 384.316756 
L 902.492412 384.316756 
L 906.684748 384.316755 
L 910.877085 384.316755 
L 915.069421 384.316755 
L 919.261758 384.316755 
L 923.454095 384.316755 
L 927.646431 384.316755 
L 931.838768 384.316755 
L 936.031104 384.316754 
L 940.223441 384.316754 
L 944.415778 384.316755 
L 948.608114 384.316755 
L 952.800451 384.316755 
L 956.992787 384.316755 
L 961.185124 384.316755 
L 965.377461 384.316755 
L 969.569797 384.316755 
L 973.762134 384.316756 
L 977.95447 384.316756 
L 982.146807 384.316756 
L 986.339144 384.316756 
L 990.53148 384.316757 
L 994.723817 384.316757 
L 998.916153 384.316758 
L 1003.10849 384.316761 
L 1007.300826 384.316771 
L 1011.493163 384.326195 
L 1015.6855 384.527549 
L 1019.877836 385.326147 
L 1024.070173 387.080669 
L 1028.262509 389.885952 
L 1032.454846 393.743222 
L 1036.647183 398.652478 
L 1040.839519 404.612495 
L 1045.031856 411.528435 
L 1049.224192 419.04162 
L 1053.416529 426.746735 
L 1057.608866 434.461264 
L 1061.801202 442.1758 
L 1065.993539 449.890338 
L 1070.185875 457.604876 
L 1074.378212 465.319414 
L 1078.570548 473.033952 
L 1082.762885 480.748491 
L 1086.955222 488.463029 
L 1091.147558 496.177566 
L 1095.339895 503.892102 
L 1099.532231 511.606631 
L 1103.724568 519.311746 
L 1107.916905 526.824931 
L 1112.109241 533.740871 
L 1116.301578 539.700887 
L 1120.493914 544.610143 
L 1124.686251 548.467412 
L 1128.878588 551.272695 
L 1133.070924 553.027216 
L 1137.263261 553.825814 
L 1141.455597 554.027164 
L 1145.647934 554.036578 
" clip-path="url(#pfd37bf644a)" style="fill: none; stroke: #365c8d; stroke-width: 1.5; stroke-linecap: square"/>
   </g>
   <g id="line2d_47">
    <path d="M 730.606612 554.036596 
L 734.798948 554.036596 
L 738.991285 554.036595 
L 743.183621 554.03658 
L 747.375958 554.036329 
L 751.568295 554.034526 
L 755.760631 554.026729 
L 759.952968 554.002525 
L 764.145304 553.942435 
L 768.337641 553.81482 
L 772.529977 553.573151 
L 776.722314 553.155015 
L 780.914651 552.484449 
L 785.106987 551.47705 
L 789.299324 550.046081 
L 793.49166 548.10869 
L 797.683997 545.591899 
L 801.876334 542.43719 
L 806.06867 538.601951 
L 810.261007 534.057867 
L 814.453343 528.788018 
L 818.64568 522.78377 
L 822.838017 516.041709 
L 827.030353 508.560939 
L 831.22269 500.341334 
L 835.415026 491.382888 
L 839.607363 481.685602 
L 843.799699 471.249476 
L 847.992036 460.074611 
L 852.184373 448.162113 
L 856.376709 435.517575 
L 860.569046 422.157948 
L 864.761382 408.120397 
L 868.953719 393.471615 
L 873.146056 378.317022 
L 877.338392 362.80818 
L 881.530729 347.14356 
L 885.723065 331.559015 
L 889.915402 316.311255 
L 894.107739 301.659323 
L 898.300075 287.845979 
L 902.492412 275.080306 
L 906.684748 263.525913 
L 910.877085 253.299212 
L 915.069421 244.475737 
L 919.261758 237.099158 
L 923.454095 231.190614 
L 927.646431 226.757782 
L 931.838768 223.802425 
L 936.031104 222.324744 
L 940.223441 222.324744 
L 944.415778 223.802425 
L 948.608114 226.757782 
L 952.800451 231.190614 
L 956.992787 237.099158 
L 961.185124 244.475737 
L 965.377461 253.299212 
L 969.569797 263.525913 
L 973.762134 275.080306 
L 977.95447 287.845979 
L 982.146807 301.659323 
L 986.339144 316.311255 
L 990.53148 331.559015 
L 994.723817 347.14356 
L 998.916153 362.80818 
L 1003.10849 378.317022 
L 1007.300826 393.471615 
L 1011.493163 408.120397 
L 1015.6855 422.157948 
L 1019.877836 435.517575 
L 1024.070173 448.162113 
L 1028.262509 460.074611 
L 1032.454846 471.249476 
L 1036.647183 481.685602 
L 1040.839519 491.382888 
L 1045.031856 500.341334 
L 1049.224192 508.560939 
L 1053.416529 516.041709 
L 1057.608866 522.78377 
L 1061.801202 528.788018 
L 1065.993539 534.057867 
L 1070.185875 538.601951 
L 1074.378212 542.43719 
L 1078.570548 545.591899 
L 1082.762885 548.10869 
L 1086.955222 550.046081 
L 1091.147558 551.47705 
L 1095.339895 552.484449 
L 1099.532231 553.155015 
L 1103.724568 553.573151 
L 1107.916905 553.81482 
L 1112.109241 553.942435 
L 1116.301578 554.002525 
L 1120.493914 554.026729 
L 1124.686251 554.034526 
L 1128.878588 554.036329 
L 1133.070924 554.03658 
L 1137.263261 554.036595 
L 1141.455597 554.036596 
L 1145.647934 554.036596 
" clip-path="url(#pfd37bf644a)" style="fill: none; stroke: #277f8e; stroke-width: 1.5; stroke-linecap: square"/>
   </g>
   <g id="line2d_48">
    <path d="M 730.606612 554.036596 
L 734.798948 554.036595 
L 738.991285 554.036586 
L 743.183621 554.036455 
L 747.375958 554.035623 
L 751.568295 554.032253 
L 755.760631 554.022098 
L 759.952968 553.997161 
L 764.145304 553.944369 
L 768.337641 553.844443 
L 772.529977 553.671157 
L 776.722314 553.391011 
L 780.914651 552.963157 
L 785.106987 552.339514 
L 789.299324 551.465162 
L 793.49166 550.27918 
L 797.683997 548.715825 
L 801.876334 546.705875 
L 806.06867 544.177952 
L 810.261007 541.059612 
L 814.453343 537.278048 
L 818.64568 532.760385 
L 822.838017 527.433809 
L 827.030353 521.226094 
L 831.22269 514.067377 
L 835.415026 505.893644 
L 839.607363 496.651569 
L 843.799699 486.303907 
L 847.992036 474.834714 
L 852.184373 462.253599 
L 856.376709 448.598343 
L 860.569046 433.935948 
L 864.761382 418.362766 
L 868.953719 402.003898 
L 873.146056 385.011256 
L 877.338392 367.559919 
L 881.530729 349.843196 
L 885.723065 332.067218 
L 889.915402 314.445783 
L 894.107739 297.196238 
L 898.300075 280.537041 
L 902.492412 264.68682 
L 906.684748 249.864046 
L 910.877085 236.285964 
L 915.069421 224.165431 
L 919.261758 213.705213 
L 923.454095 205.090447 
L 927.646431 198.480533 
L 931.838768 194.001482 
L 936.031104 191.739982 
L 940.223441 191.739982 
L 944.415778 194.001482 
L 948.608114 198.480533 
L 952.800451 205.090447 
L 956.992787 213.705213 
L 961.185124 224.165431 
L 965.377461 236.285964 
L 969.569797 249.864046 
L 973.762134 264.68682 
L 977.95447 280.537041 
L 982.146807 297.196238 
L 986.339144 314.445783 
L 990.53148 332.067218 
L 994.723817 349.843196 
L 998.916153 367.559919 
L 1003.10849 385.011256 
L 1007.300826 402.003898 
L 1011.493163 418.362766 
L 1015.6855 433.935948 
L 1019.877836 448.598343 
L 1024.070173 462.253599 
L 1028.262509 474.834714 
L 1032.454846 486.303907 
L 1036.647183 496.651569 
L 1040.839519 505.893644 
L 1045.031856 514.067377 
L 1049.224192 521.226094 
L 1053.416529 527.433809 
L 1057.608866 532.760385 
L 1061.801202 537.278048 
L 1065.993539 541.059612 
L 1070.185875 544.177952 
L 1074.378212 546.705875 
L 1078.570548 548.715825 
L 1082.762885 550.27918 
L 1086.955222 551.465162 
L 1091.147558 552.339514 
L 1095.339895 552.963157 
L 1099.532231 553.391011 
L 1103.724568 553.671157 
L 1107.916905 553.844443 
L 1112.109241 553.944369 
L 1116.301578 553.997161 
L 1120.493914 554.022098 
L 1124.686251 554.032253 
L 1128.878588 554.035623 
L 1133.070924 554.036455 
L 1137.263261 554.036586 
L 1141.455597 554.036595 
L 1145.647934 554.036596 
" clip-path="url(#pfd37bf644a)" style="fill: none; stroke: #1fa187; stroke-width: 1.5; stroke-linecap: square"/>
   </g>
   <g id="line2d_49">
    <path d="M 730.606612 554.036596 
L 734.798948 554.036596 
L 738.991285 554.036596 
L 743.183621 554.036596 
L 747.375958 554.036596 
L 751.568295 554.036596 
L 755.760631 554.036596 
L 759.952968 554.036594 
L 764.145304 554.036581 
L 768.337641 554.036509 
L 772.529977 554.036184 
L 776.722314 554.035013 
L 780.914651 554.031436 
L 785.106987 554.021919 
L 789.299324 553.999324 
L 793.49166 553.95061 
L 797.683997 553.853864 
L 801.876334 553.674809 
L 806.06867 553.363074 
L 810.261007 552.848591 
L 814.453343 552.038645 
L 818.64568 550.816116 
L 822.838017 549.039414 
L 827.030353 546.544443 
L 831.22269 543.148621 
L 835.415026 538.656706 
L 839.607363 532.868011 
L 843.799699 525.584493 
L 847.992036 516.619332 
L 852.184373 505.805714 
L 856.376709 493.005697 
L 860.569046 478.119081 
L 864.761382 461.092282 
L 868.953719 441.927123 
L 873.146056 420.689371 
L 877.338392 397.516563 
L 881.530729 372.624315 
L 885.723065 346.309939 
L 889.915402 318.952086 
L 894.107739 291.00532 
L 898.300075 262.989157 
L 902.492412 235.471888 
L 906.684748 209.050257 
L 910.877085 184.326556 
L 915.069421 161.8849 
L 919.261758 142.268398 
L 923.454095 125.958729 
L 927.646431 113.359253 
L 931.838768 104.782209 
L 936.031104 100.44 
L 940.223441 100.44 
L 944.415778 104.782209 
L 948.608114 113.359253 
L 952.800451 125.958729 
L 956.992787 142.268398 
L 961.185124 161.8849 
L 965.377461 184.326556 
L 969.569797 209.050257 
L 973.762134 235.471888 
L 977.95447 262.989157 
L 982.146807 291.00532 
L 986.339144 318.952086 
L 990.53148 346.309939 
L 994.723817 372.624315 
L 998.916153 397.516563 
L 1003.10849 420.689371 
L 1007.300826 441.927123 
L 1011.493163 461.092282 
L 1015.6855 478.119081 
L 1019.877836 493.005697 
L 1024.070173 505.805714 
L 1028.262509 516.619332 
L 1032.454846 525.584493 
L 1036.647183 532.868011 
L 1040.839519 538.656706 
L 1045.031856 543.148621 
L 1049.224192 546.544443 
L 1053.416529 549.039414 
L 1057.608866 550.816116 
L 1061.801202 552.038645 
L 1065.993539 552.848591 
L 1070.185875 553.363074 
L 1074.378212 553.674809 
L 1078.570548 553.853864 
L 1082.762885 553.95061 
L 1086.955222 553.999324 
L 1091.147558 554.021919 
L 1095.339895 554.031436 
L 1099.532231 554.035013 
L 1103.724568 554.036184 
L 1107.916905 554.036509 
L 1112.109241 554.036581 
L 1116.301578 554.036594 
L 1120.493914 554.036596 
L 1124.686251 554.036596 
L 1128.878588 554.036596 
L 1133.070924 554.036596 
L 1137.263261 554.036596 
L 1141.455597 554.036596 
L 1145.647934 554.036596 
" clip-path="url(#pfd37bf644a)" style="fill: none; stroke: #4ac16d; stroke-width: 1.5; stroke-linecap: square"/>
   </g>
   <g id="line2d_50">
    <path d="M 730.606612 554.036596 
L 734.798948 554.036595 
L 738.991285 554.036442 
L 743.183621 554.033717 
L 747.375958 554.017328 
L 751.568295 553.960703 
L 755.760631 553.819283 
L 759.952968 553.531964 
L 764.145304 553.027036 
L 768.337641 552.229297 
L 772.529977 551.063242 
L 776.722314 549.454716 
L 780.914651 547.336341 
L 785.106987 544.654834 
L 789.299324 541.37468 
L 793.49166 537.477665 
L 797.683997 532.958021 
L 801.876334 527.814995 
L 806.06867 522.048589 
L 810.261007 515.659554 
L 814.453343 508.653657 
L 818.64568 501.049114 
L 822.838017 492.881439 
L 827.030353 484.203914 
L 831.22269 475.083918 
L 835.415026 465.595607 
L 839.607363 455.814484 
L 843.799699 445.815753 
L 847.992036 435.671122 
L 852.184373 425.441697 
L 856.376709 415.172035 
L 860.569046 404.88871 
L 864.761382 394.602813 
L 868.953719 384.316763 
L 873.146056 374.030713 
L 877.338392 363.74497 
L 881.530729 353.464369 
L 885.723065 343.211097 
L 889.915402 333.038296 
L 894.107739 323.035085 
L 898.300075 313.323673 
L 902.492412 304.047478 
L 906.684748 295.356906 
L 910.877085 287.402965 
L 915.069421 280.333966 
L 919.261758 274.284666 
L 923.454095 269.36163 
L 927.646431 265.635887 
L 931.838768 263.143867 
L 936.031104 261.897105 
L 940.223441 261.897105 
L 944.415778 263.143867 
L 948.608114 265.635887 
L 952.800451 269.36163 
L 956.992787 274.284666 
L 961.185124 280.333966 
L 965.377461 287.402965 
L 969.569797 295.356906 
L 973.762134 304.047478 
L 977.95447 313.323673 
L 982.146807 323.035085 
L 986.339144 333.038296 
L 990.53148 343.211097 
L 994.723817 353.464369 
L 998.916153 363.74497 
L 1003.10849 374.030713 
L 1007.300826 384.316763 
L 1011.493163 394.602813 
L 1015.6855 404.88871 
L 1019.877836 415.172035 
L 1024.070173 425.441697 
L 1028.262509 435.671122 
L 1032.454846 445.815753 
L 1036.647183 455.814484 
L 1040.839519 465.595607 
L 1045.031856 475.083918 
L 1049.224192 484.203914 
L 1053.416529 492.881439 
L 1057.608866 501.049114 
L 1061.801202 508.653657 
L 1065.993539 515.659554 
L 1070.185875 522.048589 
L 1074.378212 527.814995 
L 1078.570548 532.958021 
L 1082.762885 537.477665 
L 1086.955222 541.37468 
L 1091.147558 544.654834 
L 1095.339895 547.336341 
L 1099.532231 549.454716 
L 1103.724568 551.063242 
L 1107.916905 552.229297 
L 1112.109241 553.027036 
L 1116.301578 553.531964 
L 1120.493914 553.819283 
L 1124.686251 553.960703 
L 1128.878588 554.017328 
L 1133.070924 554.033717 
L 1137.263261 554.036442 
L 1141.455597 554.036595 
L 1145.647934 554.036596 
" clip-path="url(#pfd37bf644a)" style="fill: none; stroke: #a0da39; stroke-width: 1.5; stroke-linecap: square"/>
   </g>
   <g id="line2d_51">
    <path d="M 730.606612 554.036579 
L 734.798948 554.034391 
L 738.991285 553.991196 
L 743.183621 553.800292 
L 747.375958 553.348424 
L 751.568295 552.587503 
L 755.760631 551.482463 
L 759.952968 549.934146 
L 764.145304 547.824053 
L 768.337641 545.097226 
L 772.529977 541.771986 
L 776.722314 537.939234 
L 780.914651 533.721145 
L 785.106987 529.182253 
L 789.299324 524.350331 
L 793.49166 519.307588 
L 797.683997 514.178098 
L 801.876334 509.035073 
L 806.06867 503.878513 
L 810.261007 498.635206 
L 814.453343 493.181078 
L 818.64568 487.43392 
L 822.838017 481.365959 
L 827.030353 474.912661 
L 831.22269 467.951851 
L 835.415026 460.392628 
L 839.607363 452.216671 
L 843.799699 443.478937 
L 847.992036 434.297928 
L 852.184373 424.772799 
L 856.376709 414.938617 
L 860.569046 404.843473 
L 864.761382 394.600622 
L 868.953719 384.316771 
L 873.146056 374.035108 
L 877.338392 363.835451 
L 881.530729 353.931212 
L 885.723065 344.548898 
L 889.915402 335.784689 
L 894.107739 327.708721 
L 898.300075 320.519304 
L 902.492412 314.453441 
L 906.684748 309.621044 
L 910.877085 305.985473 
L 915.069421 303.364928 
L 919.261758 301.515057 
L 923.454095 300.306789 
L 927.646431 299.684584 
L 931.838768 299.484019 
L 936.031104 299.456951 
L 940.223441 299.456951 
L 944.415778 299.484019 
L 948.608114 299.684584 
L 952.800451 300.306789 
L 956.992787 301.515057 
L 961.185124 303.364928 
L 965.377461 305.985473 
L 969.569797 309.621044 
L 973.762134 314.453441 
L 977.95447 320.519304 
L 982.146807 327.708721 
L 986.339144 335.784689 
L 990.53148 344.548898 
L 994.723817 353.931212 
L 998.916153 363.835451 
L 1003.10849 374.035108 
L 1007.300826 384.316771 
L 1011.493163 394.600622 
L 1015.6855 404.843473 
L 1019.877836 414.938617 
L 1024.070173 424.772799 
L 1028.262509 434.297928 
L 1032.454846 443.478937 
L 1036.647183 452.216671 
L 1040.839519 460.392628 
L 1045.031856 467.951851 
L 1049.224192 474.912661 
L 1053.416529 481.365959 
L 1057.608866 487.43392 
L 1061.801202 493.181078 
L 1065.993539 498.635206 
L 1070.185875 503.878513 
L 1074.378212 509.035073 
L 1078.570548 514.178098 
L 1082.762885 519.307588 
L 1086.955222 524.350331 
L 1091.147558 529.182253 
L 1095.339895 533.721145 
L 1099.532231 537.939234 
L 1103.724568 541.771986 
L 1107.916905 545.097226 
L 1112.109241 547.824053 
L 1116.301578 549.934146 
L 1120.493914 551.482463 
L 1124.686251 552.587503 
L 1128.878588 553.348424 
L 1133.070924 553.800292 
L 1137.263261 553.991196 
L 1141.455597 554.034391 
L 1145.647934 554.036579 
" clip-path="url(#pfd37bf644a)" style="fill: none; stroke: #fde725; stroke-width: 1.5; stroke-linecap: square"/>
   </g>
   <g id="patch_9">
    <path d="M 709.854545 576.72 
L 709.854545 77.76 
" style="fill: none; stroke: #000000; stroke-width: 0.8; stroke-linejoin: miter; stroke-linecap: square"/>
   </g>
   <g id="patch_10">
    <path d="M 1166.4 576.72 
L 1166.4 77.76 
" style="fill: none; stroke: #000000; stroke-width: 0.8; stroke-linejoin: miter; stroke-linecap: square"/>
   </g>
   <g id="patch_11">
    <path d="M 709.854545 576.72 
L 1166.4 576.72 
" style="fill: none; stroke: #000000; stroke-width: 0.8; stroke-linejoin: miter; stroke-linecap: square"/>
   </g>
   <g id="patch_12">
    <path d="M 709.854545 77.76 
L 1166.4 77.76 
" style="fill: none; stroke: #000000; stroke-width: 0.8; stroke-linejoin: miter; stroke-linecap: square"/>
   </g>
   <g id="text_37">
    <!-- $\mathrm{mode}=area$ -->
    <g transform="translate(877.455273 71.76) scale(0.192 -0.192)">
     <defs>
      <path id="DejaVuSans-Oblique-72" d="M 2853 2969 
Q 2766 3016 2653 3041 
Q 2541 3066 2413 3066 
Q 1953 3066 1609 2717 
Q 1266 2369 1153 1784 
L 800 0 
L 225 0 
L 909 3500 
L 1484 3500 
L 1375 2956 
Q 1603 3259 1920 3421 
Q 2238 3584 2597 3584 
Q 2691 3584 2781 3573 
Q 2872 3563 2963 3538 
L 2853 2969 
z
" transform="scale(0.015625)"/>
      <path id="DejaVuSans-Oblique-65" d="M 3078 2063 
Q 3088 2113 3092 2166 
Q 3097 2219 3097 2272 
Q 3097 2653 2873 2875 
Q 2650 3097 2266 3097 
Q 1838 3097 1509 2826 
Q 1181 2556 1013 2059 
L 3078 2063 
z
M 3578 1613 
L 903 1613 
Q 884 1494 878 1425 
Q 872 1356 872 1306 
Q 872 872 1139 634 
Q 1406 397 1894 397 
Q 2269 397 2603 481 
Q 2938 566 3225 728 
L 3116 159 
Q 2806 34 2476 -28 
Q 2147 -91 1806 -91 
Q 1078 -91 686 257 
Q 294 606 294 1247 
Q 294 1794 489 2264 
Q 684 2734 1063 3103 
Q 1306 3334 1642 3459 
Q 1978 3584 2356 3584 
Q 2950 3584 3301 3228 
Q 3653 2872 3653 2272 
Q 3653 2128 3634 1964 
Q 3616 1800 3578 1613 
z
" transform="scale(0.015625)"/>
     </defs>
     <use xlink:href="#DejaVuSans-6d" transform="translate(0 0.015625)"/>
     <use xlink:href="#DejaVuSans-6f" transform="translate(97.412109 0.015625)"/>
     <use xlink:href="#DejaVuSans-64" transform="translate(158.59375 0.015625)"/>
     <use xlink:href="#DejaVuSans-65" transform="translate(222.070312 0.015625)"/>
     <use xlink:href="#DejaVuSans-3d" transform="translate(303.076172 0.015625)"/>
     <use xlink:href="#DejaVuSans-Oblique-61" transform="translate(406.347656 0.015625)"/>
     <use xlink:href="#DejaVuSans-Oblique-72" transform="translate(467.626953 0.015625)"/>
     <use xlink:href="#DejaVuSans-Oblique-65" transform="translate(508.740234 0.015625)"/>
     <use xlink:href="#DejaVuSans-Oblique-61" transform="translate(570.263672 0.015625)"/>
    </g>
   </g>
   <g id="legend_2">
    <g id="patch_13">
     <path d="M 1063.04 280.6 
L 1155.2 280.6 
Q 1158.4 280.6 1158.4 277.4 
L 1158.4 88.96 
Q 1158.4 85.76 1155.2 85.76 
L 1063.04 85.76 
Q 1059.84 85.76 1059.84 88.96 
L 1059.84 277.4 
Q 1059.84 280.6 1063.04 280.6 
z
" style="fill: #ffffff; opacity: 0.8; stroke: #cccccc; stroke-linejoin: miter"/>
    </g>
    <g id="line2d_52">
     <path d="M 1066.24 98.7175 
L 1082.24 98.7175 
L 1098.24 98.7175 
" style="fill: none; stroke: #440154; stroke-width: 1.5; stroke-linecap: square"/>
    </g>
    <g id="text_38">
     <!-- $\mathrm{up}$ -->
     <g transform="translate(1111.04 104.3175) scale(0.16 -0.16)">
      <use xlink:href="#DejaVuSans-75"/>
      <use xlink:href="#DejaVuSans-70" transform="translate(63.378906 0)"/>
     </g>
    </g>
    <g id="line2d_53">
     <path d="M 1066.24 122.235 
L 1082.24 122.235 
L 1098.24 122.235 
" style="fill: none; stroke: #46327e; stroke-width: 1.5; stroke-linecap: square"/>
    </g>
    <g id="text_39">
     <!-- $\mathrm{up}_3$ -->
     <g transform="translate(1111.04 127.835) scale(0.16 -0.16)">
      <use xlink:href="#DejaVuSans-75"/>
      <use xlink:href="#DejaVuSans-70" transform="translate(63.378906 0)"/>
      <use xlink:href="#DejaVuSans-33" transform="translate(127.8125 -16.40625) scale(0.7)"/>
     </g>
    </g>
    <g id="line2d_54">
     <path d="M 1066.24 145.7525 
L 1082.24 145.7525 
L 1098.24 145.7525 
" style="fill: none; stroke: #365c8d; stroke-width: 1.5; stroke-linecap: square"/>
    </g>
    <g id="text_40">
     <!-- $\mathrm{h}_3$ -->
     <g transform="translate(1111.04 151.3525) scale(0.16 -0.16)">
      <use xlink:href="#DejaVuSans-68" transform="translate(0 0.015625)"/>
      <use xlink:href="#DejaVuSans-33" transform="translate(64.335938 -16.390625) scale(0.7)"/>
     </g>
    </g>
    <g id="line2d_55">
     <path d="M 1066.24 169.24 
L 1082.24 169.24 
L 1098.24 169.24 
" style="fill: none; stroke: #277f8e; stroke-width: 1.5; stroke-linecap: square"/>
    </g>
    <g id="text_41">
     <!-- $\mathrm{\xi}_3$ -->
     <g transform="translate(1111.04 174.84) scale(0.16 -0.16)">
      <use xlink:href="#DejaVuSans-3be" transform="translate(0 0.015625)"/>
      <use xlink:href="#DejaVuSans-33" transform="translate(56.71875 -16.390625) scale(0.7)"/>
     </g>
    </g>
    <g id="line2d_56">
     <path d="M 1066.24 192.76 
L 1082.24 192.76 
L 1098.24 192.76 
" style="fill: none; stroke: #1fa187; stroke-width: 1.5; stroke-linecap: square"/>
    </g>
    <g id="text_42">
     <!-- $\mathrm{fup}_2$ -->
     <g transform="translate(1111.04 198.36) scale(0.16 -0.16)">
      <use xlink:href="#DejaVuSans-66" transform="translate(0 0.015625)"/>
      <use xlink:href="#DejaVuSans-75" transform="translate(35.205078 0.015625)"/>
      <use xlink:href="#DejaVuSans-70" transform="translate(98.583984 0.015625)"/>
      <use xlink:href="#DejaVuSans-32" transform="translate(163.017578 -16.390625) scale(0.7)"/>
     </g>
    </g>
    <g id="line2d_57">
     <path d="M 1066.24 216.28 
L 1082.24 216.28 
L 1098.24 216.28 
" style="fill: none; stroke: #4ac16d; stroke-width: 1.5; stroke-linecap: square"/>
    </g>
    <g id="text_43">
     <!-- $\mathrm{ch}_{2,3}$ -->
     <g transform="translate(1111.04 221.88) scale(0.16 -0.16)">
      <use xlink:href="#DejaVuSans-63" transform="translate(0 0.015625)"/>
      <use xlink:href="#DejaVuSans-68" transform="translate(54.980469 0.015625)"/>
      <use xlink:href="#DejaVuSans-32" transform="translate(119.316406 -16.390625) scale(0.7)"/>
      <use xlink:href="#DejaVuSans-2c" transform="translate(163.852539 -16.390625) scale(0.7)"/>
      <use xlink:href="#DejaVuSans-33" transform="translate(199.741211 -16.390625) scale(0.7)"/>
     </g>
    </g>
    <g id="line2d_58">
     <path d="M 1066.24 240.44 
L 1082.24 240.44 
L 1098.24 240.44 
" style="fill: none; stroke: #a0da39; stroke-width: 1.5; stroke-linecap: square"/>
    </g>
    <g id="text_44">
     <!-- $\mathrm{fip}_{2,1}$ -->
     <g transform="translate(1111.04 246.04) scale(0.16 -0.16)">
      <use xlink:href="#DejaVuSans-66" transform="translate(0 0.015625)"/>
      <use xlink:href="#DejaVuSans-69" transform="translate(35.205078 0.015625)"/>
      <use xlink:href="#DejaVuSans-70" transform="translate(62.988281 0.015625)"/>
      <use xlink:href="#DejaVuSans-32" transform="translate(127.421875 -16.390625) scale(0.7)"/>
      <use xlink:href="#DejaVuSans-2c" transform="translate(171.958008 -16.390625) scale(0.7)"/>
      <use xlink:href="#DejaVuSans-31" transform="translate(207.84668 -16.390625) scale(0.7)"/>
     </g>
    </g>
    <g id="line2d_59">
     <path d="M 1066.24 264.6 
L 1082.24 264.6 
L 1098.24 264.6 
" style="fill: none; stroke: #fde725; stroke-width: 1.5; stroke-linecap: square"/>
    </g>
    <g id="text_45">
     <!-- $\mathrm{fp}_{2,1}$ -->
     <g transform="translate(1111.04 270.2) scale(0.16 -0.16)">
      <use xlink:href="#DejaVuSans-66" transform="translate(0 0.015625)"/>
      <use xlink:href="#DejaVuSans-70" transform="translate(35.205078 0.015625)"/>
      <use xlink:href="#DejaVuSans-32" transform="translate(99.638672 -16.390625) scale(0.7)"/>
      <use xlink:href="#DejaVuSans-2c" transform="translate(144.174805 -16.390625) scale(0.7)"/>
      <use xlink:href="#DejaVuSans-31" transform="translate(180.063477 -16.390625) scale(0.7)"/>
     </g>
    </g>
   </g>
  </g>
 </g>
 <defs>
  <clipPath id="p558eb6e539">
   <rect x="162" y="77.76" width="456.545455" height="498.96"/>
  </clipPath>
  <clipPath id="pfd37bf644a">
   <rect x="709.854545" y="77.76" width="456.545455" height="498.96"/>
  </clipPath>
 </defs>
</svg>
